<svg width="335" height="292" viewBox="0 0 335 292" fill="none" xmlns="http://www.w3.org/2000/svg">
<path d="M17.0625 30.8438L16.5759 27.8835L16.5693 27.8846L17.0625 30.8438ZM26.3438 29.9297L27.1331 32.824L26.2929 26.9301L26.3438 29.9297ZM18.3281 32.5312L19.4011 35.3328L19.4167 35.3268L19.4323 35.3207L18.3281 32.5312ZM11.4375 35.4141L12.6457 38.16L12.6583 38.1545L12.6708 38.1488L11.4375 35.4141ZM6.375 37.5234L7.28461 40.3822L7.34282 40.3637L7.40023 40.3428L6.375 37.5234ZM6.16406 16.5703L4.28998 14.2277L4.28666 14.2304L6.16406 16.5703ZM14.0391 11.9297L15.3667 14.6199L15.3737 14.6165L15.3807 14.613L14.0391 11.9297ZM26.3438 6.79688L27.3361 9.62799L27.3444 9.62507L27.3528 9.6221L26.3438 6.79688ZM84.3516 9.96094L82.2975 12.1475L82.3064 12.1558L82.3153 12.1641L84.3516 9.96094ZM91.4531 20.5078L88.6613 21.6057L88.6666 21.6193L88.672 21.6328L91.4531 20.5078ZM87.0938 57.6328L84.5399 56.0587L84.5327 56.0704L87.0938 57.6328ZM68.8125 77.3906L70.6077 79.7942L70.6101 79.7924L68.8125 77.3906ZM10.6641 95.3203L9.59608 98.1238L9.61739 98.1319L9.63883 98.1397L10.6641 95.3203ZM8.55469 93.0703L11.3637 92.0169L11.3562 91.997L11.3484 91.9771L8.55469 93.0703ZM10.6641 75.8438L7.92972 74.6094L7.92504 74.6199L10.6641 75.8438ZM45.8906 19.3828L48.3049 21.1636L52.3764 15.6437L45.5593 16.4012L45.8906 19.3828ZM34.7812 21.5625L35.5247 24.4689L35.5406 24.4649L35.5563 24.4606L34.7812 21.5625ZM47.9297 18.9609L47.6771 15.9716L44.9297 16.2038V18.9609H47.9297ZM48.2109 20.5781L45.2639 21.1395L45.2665 21.153L45.2692 21.1665L48.2109 20.5781ZM46.8047 27.6094L44.2 26.121L44.1941 26.1313L44.1883 26.1416L46.8047 27.6094ZM23.8828 65.5078L21.234 64.0993L21.2303 64.1063L21.2266 64.1133L23.8828 65.5078ZM20.0156 72.5391L17.4009 71.0683L17.3832 71.0997L17.3663 71.1316L20.0156 72.5391ZM19.6641 81.4688L18.5671 84.261L18.6261 84.2842L18.6861 84.3049L19.6641 81.4688ZM45.6797 78.7266L46.6001 81.5819L46.6086 81.5791L46.6171 81.5763L45.6797 78.7266ZM65.7188 69.0234L64.072 66.5158L64.0633 66.5215L65.7188 69.0234ZM79.2891 23.8125L77.5005 26.2211L77.5083 26.2268L77.516 26.2325L79.2891 23.8125ZM7.45312 31.1953C7.45312 31.7588 7.58994 32.3928 7.95946 32.9897C8.32376 33.5782 8.81114 33.9645 9.25934 34.2059C10.0659 34.6402 10.8913 34.6875 11.3672 34.6875V28.6875C11.2337 28.6875 11.602 28.6528 12.1039 28.923C12.3998 29.0823 12.7729 29.3661 13.061 29.8316C13.3544 30.3054 13.4531 30.7959 13.4531 31.1953H7.45312ZM11.3672 34.6875C11.8537 34.6875 12.6987 34.5699 13.5471 34.4442C14.5228 34.2996 15.8618 34.0852 17.5557 33.8029L16.5693 27.8846C14.8882 28.1648 13.5905 28.3723 12.6678 28.509C11.6177 28.6645 11.3025 28.6875 11.3672 28.6875V34.6875ZM17.5491 33.804C20.8613 33.2596 23.8061 32.9731 26.3946 32.9293L26.2929 26.9301C23.3501 26.98 20.1075 27.3029 16.5759 27.8835L17.5491 33.804ZM25.5544 27.0354C22.3859 27.8995 19.6037 28.7998 17.224 29.7418L19.4323 35.3207C21.5525 34.4814 24.1141 33.6473 27.1331 32.824L25.5544 27.0354ZM17.2552 29.7297C14.9924 30.5963 12.6419 31.5799 10.2042 32.6793L12.6708 38.1488C15.0144 37.0919 17.2576 36.1537 19.4011 35.3328L17.2552 29.7297ZM10.2293 32.6681C7.88789 33.6983 6.27966 34.3659 5.34977 34.7041L7.40023 40.3428C8.53284 39.931 10.2996 39.1923 12.6457 38.16L10.2293 32.6681ZM5.46539 34.6647C4.6099 34.9369 4.04088 35.0156 3.70312 35.0156V41.0156C4.86537 41.0156 6.0776 40.7663 7.28461 40.3822L5.46539 34.6647ZM3.70312 35.0156C3.56514 35.0156 3.46915 35.0044 3.40805 34.9931C3.34802 34.982 3.32293 34.9711 3.32255 34.971C3.32207 34.9707 3.32603 34.9724 3.33316 34.9766C3.34035 34.9809 3.34887 34.9865 3.35784 34.9935C3.3668 35.0004 3.3743 35.0072 3.38002 35.013C3.3857 35.0187 3.3881 35.0219 3.38753 35.0211C3.37186 35.0009 3.11719 34.619 3.11719 33.375H-2.88281C-2.88281 35.2247 -2.53983 37.1632 -1.36018 38.6898C-0.0671498 40.3631 1.80885 41.0156 3.70312 41.0156V35.0156ZM3.11719 33.375C3.11719 25.8168 5.03451 21.3228 8.04146 18.9103L4.28666 14.2304C-0.768888 18.2866 -2.88281 24.9957 -2.88281 33.375H3.11719ZM8.03815 18.9129C9.41944 17.8079 11.8092 16.3756 15.3667 14.6199L12.7114 9.23945C9.05015 11.0463 6.18993 12.7077 4.28998 14.2277L8.03815 18.9129ZM15.3807 14.613C18.9059 12.8504 22.8882 11.1871 27.3361 9.62799L25.3514 3.96576C20.7055 5.5942 16.4847 7.35276 12.6974 9.24641L15.3807 14.613ZM27.3528 9.6221C31.8048 8.03207 36.7143 6.66008 42.0878 5.5119L40.8341 -0.355649C35.2388 0.839921 30.0702 2.28043 25.3347 3.97165L27.3528 9.6221ZM42.0878 5.5119C47.3763 4.38188 52.5802 3.82031 57.7031 3.82031V-2.17969C52.1385 -2.17969 46.5143 -1.56938 40.8341 -0.355649L42.0878 5.5119ZM57.7031 3.82031C62.8951 3.82031 67.5971 4.57424 71.837 6.04521L73.8036 0.376668C68.856 -1.33986 63.4799 -2.17969 57.7031 -2.17969V3.82031ZM71.837 6.04521C76.0901 7.52076 79.5528 9.56913 82.2975 12.1475L86.4056 7.77439C82.9628 4.54025 78.7381 2.08862 73.8036 0.376668L71.837 6.04521ZM82.3153 12.1641C85.0561 14.6972 87.1752 17.8269 88.6613 21.6057L94.245 19.4099C92.4498 14.845 89.8346 10.9435 86.3878 7.75781L82.3153 12.1641ZM88.672 21.6328C90.1942 25.3959 90.9844 29.6932 90.9844 34.5703H96.9844C96.9844 29.0411 96.0871 23.9635 94.2342 19.3829L88.672 21.6328ZM90.9844 34.5703C90.9844 41.8789 88.8736 49.0275 84.5399 56.0587L89.6476 59.2069C94.5014 51.3319 96.9844 43.1055 96.9844 34.5703H90.9844ZM84.5327 56.0704C80.2024 63.1686 74.3785 69.4774 67.0149 74.9889L70.6101 79.7924C78.5277 73.8663 84.8914 67.0033 89.6548 59.1952L84.5327 56.0704ZM67.0173 74.9871C59.6859 80.463 51.3842 84.8233 42.092 88.0573L44.0642 93.7239C53.897 90.3017 62.7516 85.662 70.6077 79.7942L67.0173 74.9871ZM42.092 88.0573C32.8178 91.2851 23.7289 92.8828 14.8125 92.8828V98.8828C24.4586 98.8828 34.2134 97.1524 44.0642 93.7239L42.092 88.0573ZM14.8125 92.8828C13.2488 92.8828 12.2578 92.7076 11.6893 92.5009L9.63883 98.1397C11.1329 98.683 12.9074 98.8828 14.8125 98.8828V92.8828ZM11.732 92.5168C11.6698 92.4931 11.5304 92.4616 11.3637 92.0169L5.7457 94.1237C6.42272 95.9291 7.68956 97.3975 9.59608 98.1238L11.732 92.5168ZM11.3484 91.9771C11.1344 91.4301 10.9219 90.2668 10.9219 88.2188H4.92188C4.92188 90.4832 5.13125 92.5543 5.76096 94.1635L11.3484 91.9771ZM10.9219 88.2188C10.9219 85.6762 11.1255 83.7659 11.4651 82.4073L5.64426 80.9521C5.14015 82.9685 4.92188 85.4175 4.92188 88.2188H10.9219ZM11.4651 82.4073C11.8317 80.9409 12.465 79.1671 13.4031 77.0676L7.92504 74.6199C6.89437 76.9267 6.12141 79.0435 5.64426 80.9521L11.4651 82.4073ZM13.3984 77.0781C20.021 62.4071 31.6204 43.7835 48.3049 21.1636L43.4763 17.602C26.6921 40.3571 14.8071 59.3742 7.92974 74.6094L13.3984 77.0781ZM45.5593 16.4012C42.0052 16.7961 38.1515 17.5557 34.0062 18.6644L35.5563 24.4606C39.4735 23.413 43.026 22.7196 46.2219 22.3645L45.5593 16.4012ZM34.0378 18.6561C29.9296 19.707 26.0257 20.8801 22.3276 22.1768L24.313 27.8388C27.8337 26.6043 31.5704 25.4805 35.5247 24.4689L34.0378 18.6561ZM22.3276 22.1768C18.6553 23.4645 15.5061 24.7214 12.8998 25.9508L15.4595 31.3774C17.822 30.263 20.7666 29.0824 24.313 27.8388L22.3276 22.1768ZM12.8998 25.9508C11.6118 26.5583 10.5141 27.1406 9.69912 27.6941C9.3 27.9652 8.85184 28.307 8.47141 28.7234C8.1701 29.0531 7.45312 29.9162 7.45312 31.1953H13.4531C13.4531 31.737 13.291 32.1436 13.1734 32.3698C13.0567 32.5944 12.9398 32.728 12.9007 32.7708C12.8308 32.8473 12.8484 32.8082 13.0704 32.6574C13.4976 32.3672 14.2632 31.9417 15.4595 31.3774L12.8998 25.9508ZM44.9297 18.9609C44.9297 19.2488 44.9765 19.533 44.9797 19.5544C44.9967 19.6697 45.0192 19.8047 45.0444 19.9496C45.0954 20.2428 45.1692 20.6421 45.2639 21.1395L51.158 20.0168C51.0652 19.5297 50.9984 19.1673 50.9556 18.9215C50.9339 18.7968 50.9212 18.718 50.9149 18.6751C50.9116 18.6527 50.9124 18.6562 50.9147 18.6763C50.9159 18.6867 50.9187 18.7127 50.9216 18.7492C50.9238 18.7777 50.9297 18.8566 50.9297 18.9609H44.9297ZM45.2692 21.1665C45.4308 21.9743 45.4922 22.5895 45.4922 23.0391H51.4922C51.4922 22.0823 51.3661 21.057 51.1527 19.9898L45.2692 21.1665ZM45.4922 23.0391C45.4922 23.2751 45.2932 24.2079 44.2 26.121L49.4094 29.0978C50.5662 27.0734 51.4922 24.9593 51.4922 23.0391H45.4922ZM44.1883 26.1416C43.1651 27.9655 41.0606 31.3329 37.8217 36.3087L42.8502 39.5819C46.08 34.6202 48.288 31.097 49.4211 29.0771L44.1883 26.1416ZM37.8217 36.3087C34.5771 41.2931 31.796 45.6766 29.4808 49.4565L34.5973 52.5904C36.8759 48.8702 39.626 44.535 42.8502 39.5819L37.8217 36.3087ZM29.4808 49.4565C27.1404 53.2776 24.3902 58.1639 21.234 64.0993L26.5316 66.9163C29.6567 61.0393 32.344 56.2692 34.5973 52.5904L29.4808 49.4565ZM21.2266 64.1133C20.2394 65.9938 19.5835 67.2134 19.239 67.8163L24.4485 70.7931C24.854 70.0834 25.5575 68.7719 26.539 66.9023L21.2266 64.1133ZM19.239 67.8163C18.8586 68.4821 18.2449 69.5679 17.4009 71.0683L22.6304 74.0098C23.4739 72.5103 24.0789 71.4398 24.4485 70.7931L19.239 67.8163ZM17.3663 71.1316C16.5285 72.7086 15.8677 74.1458 15.4243 75.4207L21.0913 77.3918C21.3979 76.5104 21.909 75.3695 22.665 73.9465L17.3663 71.1316ZM15.4243 75.4207C15.0284 76.5588 14.6953 77.7761 14.6953 78.8672H20.6953C20.6953 78.8921 20.6948 78.7861 20.7605 78.4986C20.8229 78.2258 20.9282 77.8608 21.0913 77.3918L15.4243 75.4207ZM14.6953 78.8672C14.6953 80.0472 15.0255 81.2248 15.7953 82.242C16.5418 83.2284 17.5466 83.8601 18.5671 84.261L20.761 78.6765C20.4691 78.5618 20.4895 78.502 20.5797 78.6213C20.6243 78.6802 20.6595 78.7496 20.6801 78.815C20.6995 78.8769 20.6953 78.9011 20.6953 78.8672H14.6953ZM18.6861 84.3049C20.5085 84.9333 22.8178 85.1719 25.4297 85.1719V79.1719C23.0728 79.1719 21.5384 78.9417 20.642 78.6326L18.6861 84.3049ZM25.4297 85.1719C32.1661 85.1719 39.2282 83.9583 46.6001 81.5819L44.7592 75.8713C37.8811 78.0885 31.4432 79.1719 25.4297 79.1719V85.1719ZM46.6171 81.5763C53.995 79.1494 60.9163 75.7983 67.3742 71.5254L64.0633 66.5215C58.0525 70.4986 51.6144 73.6162 44.7423 75.8768L46.6171 81.5763ZM67.3655 71.531C73.9013 67.2389 79.2019 62.3318 83.1994 56.7853L78.3319 53.2772C74.8293 58.1369 70.0987 62.558 64.072 66.5158L67.3655 71.531ZM83.1994 56.7853C87.2674 51.141 89.3906 45.101 89.3906 38.7188H83.3906C83.3906 43.6803 81.7639 48.5152 78.3319 53.2772L83.1994 56.7853ZM89.3906 38.7188C89.3906 31.4071 86.6547 25.49 81.0621 21.3925L77.516 26.2325C81.3922 29.0725 83.3906 33.0929 83.3906 38.7188H89.3906ZM81.0776 21.4039C75.6156 17.348 67.9845 15.5391 58.6172 15.5391V21.5391C67.3436 21.5391 73.4938 23.2458 77.5005 26.2211L81.0776 21.4039ZM58.6172 15.5391C54.7471 15.5391 51.0996 15.6824 47.6771 15.9716L48.1823 21.9503C51.416 21.677 54.8935 21.5391 58.6172 21.5391V15.5391ZM105.445 58.2656L103.429 56.0445L103.405 56.0659L103.382 56.0878L105.445 58.2656ZM144.469 40.4062L142.347 42.5276L142.378 42.5579L142.409 42.5873L144.469 40.4062ZM146.438 43.2188L143.686 44.4149L143.708 44.4644L143.731 44.5131L146.438 43.2188ZM146.227 47.5078L147.715 50.1125L147.783 50.0737L147.849 50.0313L146.227 47.5078ZM142.781 48.9141L141.808 46.0762L138.727 47.1326L140.033 50.1165L142.781 48.9141ZM145.242 54.6797L142.433 55.7331L142.445 55.7636L142.457 55.7939L145.242 54.6797ZM142.219 62.9062L139.81 61.1179L139.805 61.1241L142.219 62.9062ZM137.438 69.6562L134.917 68.0299L134.898 68.059L134.88 68.0886L137.438 69.6562ZM156.281 70.9922H159.281V64.36L154.3 68.7391L156.281 70.9922ZM156.281 75.2812L158.511 77.2886L159.281 76.4328V75.2812H156.281ZM126.891 93.2109L124.364 94.8281L124.372 94.8404L124.38 94.8527L126.891 93.2109ZM129.773 71.8359L132.578 72.9016L127.545 69.8275L129.773 71.8359ZM114.516 88.0781L116.591 90.2447L116.599 90.2372L116.606 90.2295L114.516 88.0781ZM98.2734 83.2969L95.4975 84.4345L95.5089 84.4622L95.5208 84.4897L98.2734 83.2969ZM97.1484 68.9531L100.029 69.7896L100.033 69.7775L100.036 69.7654L97.1484 68.9531ZM139.125 50.5312L141.567 52.2736L148.092 43.1277L137.876 47.8034L139.125 50.5312ZM113.039 64.7344L111.243 62.3318L111.232 62.3396L113.039 64.7344ZM106.078 80.4844L103.421 81.8764L103.435 81.9034L103.449 81.9301L106.078 80.4844ZM110.93 80.9062L112.271 83.5895L112.365 83.5427L112.455 83.4895L110.93 80.9062ZM124.43 69.5859L126.683 71.5663L126.688 71.5607L126.693 71.555L124.43 69.5859ZM107.462 60.4868C114.428 54.1625 121.096 49.5502 127.46 46.5682L124.915 41.135C117.873 44.4342 110.713 49.4313 103.429 56.0445L107.462 60.4868ZM127.46 46.5682C134.091 43.4613 138.766 42.1406 141.727 42.1406V36.1406C137.374 36.1406 131.69 37.9606 124.915 41.135L127.46 46.5682ZM141.727 42.1406C141.752 42.1406 141.939 42.1191 142.347 42.5276L146.59 38.2849C145.311 37.0059 143.67 36.1406 141.727 36.1406V42.1406ZM142.409 42.5873C142.954 43.1023 143.377 43.7035 143.686 44.4149L149.189 42.0226C148.561 40.5778 147.671 39.304 146.529 38.2252L142.409 42.5873ZM143.731 44.5131C143.953 44.9781 144.089 45.3176 144.163 45.5485C144.2 45.6613 144.214 45.7256 144.219 45.7482C144.224 45.7746 144.211 45.7219 144.211 45.6094H150.211C150.211 44.3507 149.663 43.0088 149.144 41.9244L143.731 44.5131ZM144.211 45.6094C144.211 45.6386 144.207 45.5179 144.302 45.3358C144.401 45.1438 144.534 45.0292 144.604 44.9843L147.849 50.0313C149.444 49.0058 150.211 47.3746 150.211 45.6094H144.211ZM144.738 44.9031C144.35 45.1247 143.439 45.517 141.808 46.0762L143.754 51.7519C145.405 51.1861 146.79 50.6409 147.715 50.1125L144.738 44.9031ZM140.033 50.1165C140.362 50.8692 140.785 51.8322 141.301 53.0051L146.793 50.5887C146.278 49.4178 145.857 48.4589 145.53 47.7116L140.033 50.1165ZM141.301 53.0051C141.806 54.1522 142.18 55.0565 142.433 55.7331L148.051 53.6263C147.742 52.8028 147.319 51.7853 146.793 50.5887L141.301 53.0051ZM142.457 55.7939C142.642 56.258 142.664 56.5045 142.664 56.5781H148.664C148.664 55.5268 148.404 54.5076 148.028 53.5655L142.457 55.7939ZM142.664 56.5781C142.664 56.3291 142.716 56.5621 142.168 57.5694C141.688 58.4504 140.918 59.6251 139.81 61.118L144.627 64.6945C145.816 63.0936 146.769 61.6668 147.438 60.4384C148.038 59.3363 148.664 57.9522 148.664 56.5781H142.664ZM139.805 61.1241C137.551 64.1768 135.909 66.4915 134.917 68.0299L139.958 71.2826C140.841 69.9148 142.386 67.7295 144.632 64.6884L139.805 61.1241ZM134.88 68.0886C133.638 70.1139 133.102 72.4683 133.102 75H139.102C139.102 73.3129 139.455 72.1048 139.995 71.2239L134.88 68.0886ZM133.102 75C133.102 77.1369 133.587 79.299 135.088 80.9322C136.633 82.6134 138.758 83.2031 140.883 83.2031V77.2031C139.82 77.2031 139.555 76.9257 139.506 76.8725C139.413 76.7713 139.102 76.3319 139.102 75H133.102ZM140.883 83.2031C143.35 83.2031 146.029 82.0926 148.733 80.4749C151.517 78.8098 154.699 76.3776 158.262 73.2452L154.3 68.7391C150.879 71.7474 148.002 73.9207 145.653 75.3258C143.225 76.7784 141.696 77.2031 140.883 77.2031V83.2031ZM153.281 70.9922V75.2812H159.281V70.9922H153.281ZM154.052 73.2739C148.175 79.8009 143.225 84.5931 139.184 87.7298C134.993 90.983 132.296 92.0391 130.828 92.0391V98.0391C134.469 98.0391 138.57 95.8022 142.863 92.4694C147.306 89.0202 152.528 83.9335 158.511 77.2886L154.052 73.2739ZM130.828 92.0391C129.719 92.0391 129.501 91.7209 129.402 91.5692L124.38 94.8527C125.874 97.1385 128.281 98.0391 130.828 98.0391V92.0391ZM129.417 91.5938C129.122 91.1326 128.766 90.0576 128.766 87.9375H122.766C122.766 90.5049 123.159 92.9455 124.364 94.8281L129.417 91.5938ZM128.766 87.9375C128.766 84.809 129.93 79.8697 132.578 72.9016L126.969 70.7703C124.273 77.8647 122.766 83.6598 122.766 87.9375H128.766ZM127.545 69.8275C120.706 77.416 115.676 82.7666 112.425 85.9267L116.606 90.2295C120.011 86.9209 125.153 81.4434 132.002 73.8444L127.545 69.8275ZM112.441 85.9115C110.878 87.4079 109.551 88.4333 108.455 89.0703C107.341 89.718 106.645 89.8594 106.289 89.8594V95.8594C108.089 95.8594 109.843 95.2038 111.47 94.2578C113.116 93.3011 114.825 91.9358 116.591 90.2447L112.441 85.9115ZM106.289 89.8594C106.624 89.8594 106.641 89.9907 106.254 89.7232C105.892 89.4733 105.37 89.0066 104.687 88.2204L100.157 92.1546C101.021 93.1497 101.916 94.0189 102.844 94.6596C103.745 95.2827 104.923 95.8594 106.289 95.8594V89.8594ZM104.687 88.2204C103.391 86.7282 102.157 84.7145 101.026 82.1041L95.5208 84.4897C96.8271 87.5043 98.3589 90.0843 100.157 92.1546L104.687 88.2204ZM101.049 82.1592C100.023 79.6556 99.5156 77.0885 99.5156 74.4375H93.5156C93.5156 77.8802 94.1798 81.2194 95.4975 84.4345L101.049 82.1592ZM99.5156 74.4375C99.5156 72.4008 99.7135 70.878 100.029 69.7896L94.2674 68.1167C93.7396 69.9345 93.5156 72.0679 93.5156 74.4375H99.5156ZM100.036 69.7654C100.327 68.7308 100.929 67.5552 101.966 66.2394L97.2529 62.5262C95.852 64.3042 94.8133 66.1754 94.2605 68.1409L100.036 69.7654ZM101.966 66.2394C103.048 64.8654 104.868 62.9448 107.509 60.4435L103.382 56.0878C100.679 58.649 98.6079 60.8065 97.2529 62.5262L101.966 66.2394ZM137.876 47.8034C125.654 53.3974 116.715 58.2398 111.243 62.3318L114.836 67.137C119.769 63.4477 128.221 58.8214 140.374 53.2591L137.876 47.8034ZM111.232 62.3396C105.757 66.4708 102.305 71.2572 102.305 76.7578H108.305C108.305 74.0084 110.009 70.7792 114.846 67.1291L111.232 62.3396ZM102.305 76.7578C102.305 78.5807 102.615 80.3389 103.421 81.8764L108.736 79.0924C108.51 78.6611 108.305 77.935 108.305 76.7578H102.305ZM103.449 81.9301C104.366 83.5964 105.963 84.8906 108.188 84.8906V78.8906C108.231 78.8906 108.306 78.8968 108.401 78.9246C108.497 78.9529 108.585 78.9952 108.656 79.0429C108.799 79.1378 108.793 79.1945 108.707 79.0386L103.449 81.9301ZM108.188 84.8906C108.974 84.8906 109.726 84.6647 110.273 84.4681C110.883 84.2491 111.556 83.947 112.271 83.5895L109.588 78.223C108.99 78.5218 108.55 78.7118 108.246 78.8209C108.096 78.8748 108.01 78.8977 107.978 78.9051C107.935 78.915 108.018 78.8906 108.188 78.8906V84.8906ZM112.455 83.4895C117.671 80.4095 122.413 76.4259 126.683 71.5663L122.176 67.6056C118.29 72.0272 114.032 75.5905 109.404 78.323L112.455 83.4895ZM126.693 71.555C130.86 66.7657 135.821 60.3281 141.567 52.2736L136.683 48.7889C130.992 56.7657 126.156 63.0312 122.166 67.6168L126.693 71.555ZM164.93 70.9922L163.046 68.6574L162.219 69.3246L161.996 70.3636L164.93 70.9922ZM163.664 76.8984L166.574 77.626L166.587 77.5767L166.597 77.527L163.664 76.8984ZM181.242 71.4141L183.376 73.5226L184.223 72.6653L184.242 71.4602L181.242 71.4141ZM184.617 60.8672L182.005 59.392L181.998 59.4037L181.992 59.4155L184.617 60.8672ZM192 50.3906L189.777 48.3761L189.768 48.3857L189.76 48.3954L192 50.3906ZM199.945 56.0156L202.786 56.9813L202.789 56.9728L202.791 56.9643L199.945 56.0156ZM196.43 63.6797L199.037 65.1633L199.043 65.1537L199.048 65.1441L196.43 63.6797ZM190.734 72.1172L188.362 70.2807L187.151 71.8449L188.112 73.5741L190.734 72.1172ZM197.695 74.2266L199.194 76.8251L199.21 76.8164L199.225 76.8074L197.695 74.2266ZM202.406 70.8516H205.406V64.6097L200.532 68.509L202.406 70.8516ZM202.406 75.5625L204.26 77.9215L205.406 77.0206V75.5625H202.406ZM196.148 79.7812L194.84 77.0818L194.823 77.0898L194.807 77.098L196.148 79.7812ZM185.25 79.0078L186.632 76.3453L184.623 75.3021L183.069 76.9479L185.25 79.0078ZM173.578 90.3984L175.492 92.709L175.502 92.7002L175.513 92.6913L173.578 90.3984ZM157.969 88.3594L155.372 89.8613L155.382 89.8798L155.394 89.8982L157.969 88.3594ZM165.141 53.1328L167.476 55.0161L167.479 55.012L165.141 53.1328ZM170.203 47.7891L171.989 50.1997L171.996 50.1944L172.003 50.1891L170.203 47.7891ZM175.828 59.25L178.288 60.9669L178.292 60.961L178.297 60.955L175.828 59.25ZM161.996 70.3636L160.731 76.2699L166.597 77.527L167.863 71.6208L161.996 70.3636ZM160.754 76.1708C160.496 77.2028 160.383 78.2969 160.383 79.4297H166.383C166.383 78.6875 166.457 78.094 166.574 77.626L160.754 76.1708ZM160.383 79.4297C160.383 81.038 160.707 82.8028 161.869 84.1979C163.119 85.6978 164.871 86.2266 166.547 86.2266V80.2266C166.313 80.2266 166.245 80.191 166.277 80.2038C166.327 80.224 166.412 80.2772 166.478 80.3568C166.535 80.4248 166.511 80.4317 166.471 80.2879C166.429 80.1367 166.383 79.864 166.383 79.4297H160.383ZM166.547 86.2266C167.87 86.2266 169.128 85.6392 170.084 85.0952C171.142 84.4924 172.325 83.6458 173.612 82.6117C176.193 80.5371 179.456 77.4903 183.376 73.5226L179.108 69.3055C175.247 73.2128 172.171 76.0722 169.853 77.9352C168.69 78.8699 167.785 79.4997 167.115 79.8814C166.341 80.3217 166.231 80.2266 166.547 80.2266V86.2266ZM184.242 71.4602C184.278 69.0891 185.169 66.0686 187.243 62.3189L181.992 59.4155C179.659 63.6345 178.3 67.6453 178.243 71.3679L184.242 71.4602ZM187.229 62.3423C189.389 58.5189 191.729 55.206 194.24 52.3859L189.76 48.3954C186.928 51.5752 184.346 55.2467 182.005 59.392L187.229 62.3423ZM194.223 52.4052C195.52 50.9736 196.555 50.0075 197.342 49.4223C198.236 48.7568 198.403 48.8906 198.047 48.8906V42.8906C196.378 42.8906 194.881 43.7744 193.76 44.6089C192.53 45.5237 191.198 46.8077 189.777 48.3761L194.223 52.4052ZM198.047 48.8906C198.237 48.8906 198.261 48.9219 198.194 48.8921C198.108 48.8545 198.025 48.786 197.977 48.7233C197.942 48.677 197.986 48.7124 198.039 48.92C198.092 49.1313 198.141 49.4689 198.141 49.9688H204.141C204.141 48.3155 203.842 46.5269 202.757 45.097C201.554 43.5107 199.797 42.8906 198.047 42.8906V48.8906ZM198.141 49.9688C198.141 51.1627 197.843 52.8365 197.099 55.0669L202.791 56.9643C203.642 54.4135 204.141 52.056 204.141 49.9688H198.141ZM197.105 55.0499C196.38 57.181 195.293 59.567 193.811 62.2152L199.048 65.1441C200.661 62.2611 201.916 59.5378 202.786 56.9813L197.105 55.0499ZM193.822 62.1961C192.356 64.7727 190.54 67.4676 188.362 70.2807L193.107 73.9537C195.429 70.9543 197.409 68.0241 199.037 65.1633L193.822 62.1961ZM188.112 73.5741C188.787 74.79 189.575 75.9017 190.525 76.7397C191.498 77.5986 192.779 78.2812 194.32 78.2812V72.2812C194.643 72.2812 194.717 72.4365 194.495 72.2407C194.249 72.0241 193.853 71.5538 193.357 70.6603L188.112 73.5741ZM194.32 78.2812C196.035 78.2812 197.679 77.6993 199.194 76.8251L196.196 71.628C195.274 72.16 194.668 72.2812 194.32 72.2812V78.2812ZM199.225 76.8074C200.662 75.9559 202.355 74.7344 204.28 73.1942L200.532 68.509C198.707 69.9688 197.26 70.9972 196.166 71.6457L199.225 76.8074ZM199.406 70.8516V75.5625H205.406V70.8516H199.406ZM200.553 73.2035C197.97 75.2327 196.089 76.4763 194.84 77.0818L197.457 82.4807C199.302 81.5862 201.592 80.0173 204.26 77.9215L200.553 73.2035ZM194.807 77.098C193.862 77.5703 192.422 77.9062 190.312 77.9062V83.9062C192.984 83.9062 195.435 83.4922 197.49 82.4645L194.807 77.098ZM190.312 77.9062C190.399 77.9062 190.156 77.9072 189.397 77.6227C188.708 77.3642 187.794 76.9482 186.632 76.3453L183.868 81.6703C185.144 82.333 186.292 82.8663 187.29 83.2406C188.219 83.5889 189.288 83.9062 190.312 83.9062V77.9062ZM183.069 76.9479C178.316 81.9806 174.515 85.6824 171.644 88.1056L175.513 92.6913C178.641 90.052 182.622 86.16 187.431 81.0677L183.069 76.9479ZM171.665 88.0879C168.721 90.5252 167.003 91.125 166.266 91.125V97.125C169.279 97.125 172.435 95.2404 175.492 92.709L171.665 88.0879ZM166.266 91.125C164.472 91.125 162.532 90.1466 160.544 86.8205L155.394 89.8982C158 94.2597 161.59 97.125 166.266 97.125V91.125ZM160.566 86.8575C158.589 83.4387 157.594 79.6937 157.594 75.5625H151.594C151.594 80.7125 152.849 85.4988 155.372 89.8613L160.566 86.8575ZM157.594 75.5625C157.594 70.3775 160.571 63.5787 167.476 55.0161L162.805 51.2496C155.648 60.1245 151.594 68.2788 151.594 75.5625H157.594ZM167.479 55.012C169.567 52.4137 171.053 50.8927 171.989 50.1997L168.417 45.3784C166.822 46.5604 164.933 48.6019 162.802 51.2536L167.479 55.012ZM172.003 50.1891C172.796 49.5942 173.641 49.3125 174.633 49.3125V43.3125C172.343 43.3125 170.235 44.0152 168.403 45.3891L172.003 50.1891ZM174.633 49.3125C175.662 49.3125 176.613 49.4993 177.509 49.8642L179.773 44.3077C178.137 43.6413 176.416 43.3125 174.633 43.3125V49.3125ZM177.509 49.8642C177.719 49.9498 177.858 50.0213 177.942 50.0711C178.028 50.1222 178.028 50.1339 177.984 50.0906C177.937 50.0455 177.822 49.9222 177.718 49.7072C177.609 49.48 177.539 49.2059 177.539 48.9141H183.539C183.539 47.5538 182.893 46.489 182.145 45.7687C181.446 45.0948 180.583 44.638 179.773 44.3077L177.509 49.8642ZM177.539 48.9141C177.539 49.4723 177.335 50.4672 176.632 52.0117C175.945 53.5185 174.871 55.3573 173.36 57.545L178.297 60.955C179.926 58.5958 181.208 56.4386 182.091 54.5001C182.958 52.5992 183.539 50.6996 183.539 48.9141H177.539ZM173.368 57.5331C170.384 61.8092 166.943 65.5132 163.046 68.6574L166.813 73.327C171.166 69.8149 174.991 65.6908 178.288 60.9669L173.368 57.5331ZM227.719 38.0859L225.758 40.3564L225.783 40.3779L225.808 40.3988L227.719 38.0859ZM238.758 25.3594L236.692 27.5344L236.721 27.5622L236.751 27.5893L238.758 25.3594ZM235.875 70.8516H238.875V64.3917L233.939 68.5595L235.875 70.8516ZM235.875 75.9844L238.245 77.8236L238.875 77.0118V75.9844H235.875ZM223.148 89.2734L224.948 91.6734L224.958 91.6666L224.967 91.6597L223.148 89.2734ZM204.516 87.6562L201.795 88.9214L204.516 87.6562ZM202.266 69.2344L205.19 69.9028L205.192 69.894L205.194 69.8852L202.266 69.2344ZM206.484 60.0234L203.96 58.4017L203.943 58.4292L203.926 58.457L206.484 60.0234ZM226.242 54.8203L223.656 53.2993L223.648 53.3135L223.64 53.3278L226.242 54.8203ZM221.32 61.6406L219.271 59.4498L219.254 59.466L219.237 59.4824L221.32 61.6406ZM213.305 69.8672L210.983 67.9675L210.965 67.9889L210.948 68.0106L213.305 69.8672ZM225.539 78.6562L227.096 81.2206L227.102 81.2167L227.109 81.2128L225.539 78.6562ZM231.094 36.4219C230.748 36.4219 230.278 36.3091 229.629 35.7731L225.808 40.3988C227.315 41.6441 229.096 42.4219 231.094 42.4219V36.4219ZM229.68 35.8155C229.306 35.4931 229.172 35.1961 229.172 34.7109H223.172C223.172 36.9446 224.069 38.8975 225.758 40.3564L229.68 35.8155ZM229.172 34.7109C229.172 33.5957 229.72 31.9417 231.493 29.6621L226.757 25.9785C224.592 28.7614 223.172 31.7012 223.172 34.7109H229.172ZM231.493 29.6621C233.196 27.4722 234.46 27.0234 235.242 27.0234V21.0234C231.806 21.0234 228.991 23.1059 226.757 25.9785L231.493 29.6621ZM235.242 27.0234C235.953 27.0234 236.363 27.222 236.692 27.5344L240.824 23.1844C239.278 21.7155 237.344 21.0234 235.242 21.0234V27.0234ZM236.751 27.5893C236.879 27.7049 237.164 28.0247 237.164 29.0859H243.164C243.164 26.866 242.511 24.7013 240.765 23.1295L236.751 27.5893ZM237.164 29.0859C237.164 30.1494 236.643 31.7295 234.925 33.9082L239.637 37.6231C241.763 34.9268 243.164 32.0538 243.164 29.0859H237.164ZM234.925 33.9082C233.327 35.9349 232.044 36.4219 231.094 36.4219V42.4219C234.55 42.4219 237.391 40.4714 239.637 37.6231L234.925 33.9082ZM232.875 70.8516V75.9844H238.875V70.8516H232.875ZM233.505 74.1452C229.047 79.8903 224.986 84.1021 221.33 86.8871L224.967 91.6597C229.186 88.4447 233.61 83.7972 238.245 77.8236L233.505 74.1452ZM221.348 86.8734C217.572 89.7056 214.873 90.7031 213.094 90.7031V96.7031C216.846 96.7031 220.85 94.7476 224.948 91.6734L221.348 86.8734ZM213.094 90.7031C211.727 90.7031 210.669 90.3554 209.795 89.7394C208.895 89.1051 208.011 88.0577 207.236 86.3911L201.795 88.9214C202.895 91.286 204.378 93.2621 206.338 94.6434C208.323 96.043 210.617 96.7031 213.094 96.7031V90.7031ZM207.236 86.3911C205.559 82.7854 204.703 78.8152 204.703 74.4375H198.703C198.703 79.6223 199.722 84.4646 201.795 88.9214L207.236 86.3911ZM204.703 74.4375C204.703 72.8152 204.869 71.3063 205.19 69.9028L199.341 68.5659C198.912 70.4437 198.703 72.4036 198.703 74.4375H204.703ZM205.194 69.8852C205.54 68.3306 205.923 67.1842 206.308 66.3803L200.895 63.7916C200.248 65.1439 199.742 66.7632 199.337 68.5836L205.194 69.8852ZM206.308 66.3803C206.751 65.4534 207.641 63.8798 209.043 61.5899L203.926 58.457C202.515 60.7608 201.483 62.5622 200.895 63.7916L206.308 66.3803ZM209.008 61.6451C212.253 56.5954 215.255 52.9794 217.99 50.655C220.731 48.3248 222.971 47.4844 224.766 47.4844V41.4844C221.029 41.4844 217.456 43.2338 214.104 46.0833C210.745 48.9386 207.372 53.0921 203.96 58.4017L209.008 61.6451ZM224.766 47.4844C225.298 47.4844 225.662 47.5366 225.896 47.5966C226.125 47.6555 226.18 47.7091 226.151 47.687C226.107 47.6527 226.057 47.5895 226.033 47.5344C226.017 47.4973 226.055 47.5587 226.055 47.7891H232.055C232.055 45.9854 231.429 44.1791 229.813 42.9341C228.346 41.8034 226.497 41.4844 224.766 41.4844V47.4844ZM226.055 47.7891C226.055 47.9833 225.977 48.5315 225.566 49.5577C225.173 50.5409 224.549 51.7818 223.656 53.2993L228.828 56.3414C229.81 54.6713 230.593 53.1466 231.137 51.786C231.664 50.4685 232.055 49.0948 232.055 47.7891H226.055ZM223.64 53.3278C221.857 56.4361 220.394 58.3993 219.271 59.4498L223.37 63.8314C225.153 62.1632 226.971 59.5796 228.845 56.3128L223.64 53.3278ZM219.237 59.4824C215.174 63.4045 212.377 66.2636 210.983 67.9675L215.627 71.7669C216.764 70.377 219.31 67.7517 223.404 63.7988L219.237 59.4824ZM210.948 68.0106C209.313 70.0864 208.477 72.4981 208.477 75.1406H214.477C214.477 73.8456 214.859 72.7418 215.661 71.7238L210.948 68.0106ZM208.477 75.1406C208.477 77.6884 209.478 79.9096 211.382 81.6016L215.368 77.1171C214.74 76.5592 214.477 75.9678 214.477 75.1406H208.477ZM211.382 81.6016C213.298 83.3045 215.694 84.0469 218.297 84.0469V78.0469C216.869 78.0469 215.984 77.6642 215.368 77.1171L211.382 81.6016ZM218.297 84.0469C221.224 84.0469 224.178 82.992 227.096 81.2206L223.982 76.0919C221.65 77.508 219.776 78.0469 218.297 78.0469V84.0469ZM227.109 81.2128C229.97 79.4557 233.549 76.7421 237.811 73.1437L233.939 68.5595C229.763 72.086 226.451 74.5756 223.969 76.0997L227.109 81.2128ZM267.445 70.9922L270.378 71.6262L272.816 60.3479L265.193 69.0103L267.445 70.9922ZM256.336 82.9453L254.215 80.824L254.207 80.8316L254.199 80.8393L256.336 82.9453ZM248.391 90.3281L250.251 92.6814L250.258 92.6759L248.391 90.3281ZM240.094 89.7656L237.707 91.5838L237.721 91.6015L237.735 91.6191L240.094 89.7656ZM241.219 59.25L243.384 61.3267L243.389 61.3212L243.394 61.3157L241.219 59.25ZM275.672 47.5078L273.281 49.3201L276.255 53.2426L278.378 48.8022L275.672 47.5078ZM285.938 27.3984L283.32 25.9326L283.316 25.9406L283.311 25.9487L285.938 27.3984ZM301.688 11.5781L299.366 13.4778L299.413 13.5356L299.463 13.5909L301.688 11.5781ZM297.68 27.5391L300.249 29.0886L300.254 29.0796L297.68 27.5391ZM278.203 61.5L280.932 62.7467L280.936 62.7379L278.203 61.5ZM284.742 80.2031L286.52 82.6194L286.535 82.6087L286.549 82.5977L284.742 80.2031ZM295.359 70.8516H298.359V63.8688L293.294 68.6755L295.359 70.8516ZM295.359 75.9844L297.732 77.8209L298.359 77.0099V75.9844H295.359ZM267.164 93.0703L264.542 94.5272L264.557 94.5547L264.573 94.5819L267.164 93.0703ZM272.648 53.8359L275.595 54.3973L276.556 49.3528L271.69 50.9931L272.648 53.8359ZM257.953 60.6562L259.399 63.2849L259.407 63.2803L259.416 63.2756L257.953 60.6562ZM247.758 67.0547L249.776 69.2745L249.829 69.2265L249.879 69.176L247.758 67.0547ZM252.539 76.7578L250.564 74.5001L250.549 74.5125L250.535 74.5251L252.539 76.7578ZM256.195 73.5938L258.116 75.8984L258.148 75.8713L258.18 75.8433L256.195 73.5938ZM261.469 69.0938L263.405 71.3854L263.408 71.3824L261.469 69.0938ZM270.75 59.25L273.369 60.7135L273.378 60.6974L273.387 60.6813L270.75 59.25ZM265.193 69.0103C261.097 73.6651 257.438 77.6001 254.215 80.824L258.457 85.0666C261.796 81.728 265.544 77.6943 269.697 72.9741L265.193 69.0103ZM254.199 80.8393C250.997 84.0879 248.447 86.4502 246.523 87.9803L250.258 92.6759C252.46 90.9248 255.206 88.3652 258.472 85.0513L254.199 80.8393ZM246.53 87.9749C245.577 88.7286 244.856 89.2267 244.344 89.5218C244.089 89.6686 243.937 89.7352 243.873 89.7591C243.787 89.7915 243.936 89.7188 244.242 89.7188V95.7188C245.469 95.7188 246.599 95.1471 247.34 94.7204C248.21 94.2186 249.189 93.5214 250.251 92.6814L246.53 87.9749ZM244.242 89.7188C244.458 89.7188 244.408 89.805 244.031 89.5365C243.655 89.2691 243.125 88.7674 242.453 87.9122L237.735 91.6191C238.61 92.7326 239.544 93.7075 240.551 94.4245C241.557 95.1403 242.807 95.7188 244.242 95.7188V89.7188ZM242.48 87.9475C241.217 86.2891 240.059 84.0792 239.055 81.2415L233.398 83.2429C234.551 86.499 235.971 89.3046 237.707 91.5838L242.48 87.9475ZM239.055 81.2415C238.087 78.5065 237.609 75.7507 237.609 72.9609H231.609C231.609 76.4524 232.21 79.8841 233.398 83.2429L239.055 81.2415ZM237.609 72.9609C237.609 69.4523 239.297 65.5871 243.384 61.3267L239.054 57.1733C234.328 62.1004 231.609 67.3758 231.609 72.9609H237.609ZM243.394 61.3157C247.583 56.9038 252.347 53.2532 257.694 50.3566L254.837 45.0809C248.934 48.2781 243.667 52.315 239.043 57.1843L243.394 61.3157ZM257.694 50.3566C263.306 47.317 266.935 46.1484 268.922 46.1484V40.1484C265.284 40.1484 260.475 42.0267 254.837 45.0809L257.694 50.3566ZM268.922 46.1484C269.836 46.1484 271.308 46.7178 273.281 49.3201L278.063 45.6955C275.629 42.4854 272.602 40.1484 268.922 40.1484V46.1484ZM278.378 48.8022C281.968 41.2955 285.364 34.6459 288.564 28.8482L283.311 25.9487C280.043 31.8698 276.594 38.6263 272.965 46.2134L278.378 48.8022ZM288.555 28.8642C291.814 23.0438 294.472 18.8356 296.54 16.1513L291.788 12.4893C289.45 15.5237 286.623 20.0343 283.32 25.9326L288.555 28.8642ZM296.54 16.1513C297.598 14.7789 298.418 13.8646 299.014 13.3218C299.312 13.0503 299.484 12.9369 299.539 12.9055C299.623 12.8574 299.37 13.0312 298.875 13.0312V7.03125C297.912 7.03125 297.11 7.38377 296.567 7.69309C295.996 8.01912 295.461 8.44185 294.974 8.88519C294 9.77215 292.933 11.0023 291.788 12.4893L296.54 16.1513ZM298.875 13.0312C298.88 13.0312 298.876 13.0315 298.871 13.03C298.866 13.0288 298.877 13.0306 298.906 13.0466C298.967 13.0804 299.129 13.1887 299.366 13.4778L304.009 9.67841C302.776 8.17039 301.056 7.03125 298.875 7.03125V13.0312ZM299.463 13.5909C299.881 14.0532 300.023 14.4703 300.023 14.9531H306.023C306.023 12.9047 305.275 11.0718 303.912 9.56539L299.463 13.5909ZM300.023 14.9531C300.023 15.5558 299.772 16.7621 298.926 18.7553C298.109 20.6789 296.848 23.086 295.105 25.9986L300.254 29.0796C302.074 26.039 303.484 23.3719 304.449 21.1002C305.384 18.898 306.023 16.788 306.023 14.9531H300.023ZM295.111 25.9896C291.553 31.8878 288.043 37.645 284.579 43.2613L289.686 46.4106C293.16 40.7769 296.681 35.0028 300.249 29.0885L295.111 25.9896ZM284.579 43.2613C281.05 48.9843 278.012 54.6512 275.47 60.2621L280.936 62.7379C283.363 57.38 286.278 51.9376 289.686 46.4106L284.579 43.2613ZM275.474 60.2533C272.861 65.9736 271.477 71.4412 271.477 76.6172H277.477C277.477 72.5119 278.577 67.9014 280.932 62.7467L275.474 60.2533ZM271.477 76.6172C271.477 78.9526 271.835 81.221 272.974 82.9884C274.259 84.982 276.277 85.9453 278.555 85.9453V79.9453C278.267 79.9453 278.161 79.8913 278.149 79.8852C278.147 79.8842 278.101 79.8673 278.018 79.7382C277.797 79.3962 277.477 78.5005 277.477 76.6172H271.477ZM278.555 85.9453C281.191 85.9453 283.911 84.5397 286.52 82.6194L282.964 77.7868C280.605 79.5228 279.199 79.9453 278.555 79.9453V85.9453ZM286.549 82.5977C289.175 80.6163 292.814 77.4026 297.424 73.0277L293.294 68.6755C288.717 73.0193 285.278 76.04 282.935 77.8086L286.549 82.5977ZM292.359 70.8516V75.9844H298.359V70.8516H292.359ZM292.987 74.1479C287.986 80.6083 283.654 85.3244 279.985 88.3977C276.217 91.5553 273.591 92.6016 271.945 92.6016V98.6016C275.784 98.6016 279.803 96.3783 283.839 92.9968C287.975 89.531 292.608 84.4386 297.732 77.8209L292.987 74.1479ZM271.945 92.6016C270.645 92.6016 270.124 92.1914 269.755 91.5587L264.573 94.5819C266.172 97.3242 268.839 98.6016 271.945 98.6016V92.6016ZM269.787 91.6134C269.216 90.5868 268.758 88.6868 268.758 85.5469H262.758C262.758 89.0632 263.237 92.1788 264.542 94.5272L269.787 91.6134ZM268.758 85.5469C268.758 81.2945 269.29 76.6577 270.378 71.6262L264.513 70.3582C263.351 75.7329 262.758 80.7992 262.758 85.5469H268.758ZM271.69 50.9931C267.284 52.4784 262.21 54.8436 256.491 58.0369L259.416 63.2756C264.946 60.1876 269.669 58.006 273.607 56.6788L271.69 50.9931ZM256.507 58.0276C253.67 59.5879 251.359 60.9256 249.591 62.0351C247.894 63.1001 246.487 64.0825 245.636 64.9334L249.879 69.176C250.2 68.855 251.079 68.185 252.78 67.1172C254.411 66.0939 256.611 64.8183 259.399 63.2849L256.507 58.0276ZM245.74 64.8349C244.088 66.3366 242.982 68.75 242.149 71.4422L247.882 73.214C248.643 70.75 249.365 69.6477 249.776 69.2745L245.74 64.8349ZM242.149 71.4422C241.337 74.0711 240.82 76.3768 240.82 78.1641H246.82C246.82 77.3263 247.101 75.7414 247.882 73.214L242.149 71.4422ZM240.82 78.1641C240.82 79.5925 241.261 81.0036 242.304 82.1508L246.743 78.1148C246.756 78.1292 246.773 78.15 246.788 78.1762C246.804 78.2025 246.815 78.2266 246.821 78.2449C246.835 78.2835 246.82 78.2673 246.82 78.1641H240.82ZM242.304 82.1508C243.347 83.2983 244.742 83.9062 246.281 83.9062V77.9062C246.304 77.9062 246.399 77.9125 246.523 77.9669C246.647 78.0217 246.72 78.0896 246.743 78.1148L242.304 82.1508ZM246.281 83.9062C247.771 83.9062 249.108 83.2836 250.195 82.5587L246.867 77.5663C246.588 77.7523 246.395 77.8443 246.283 77.8863C246.172 77.9276 246.18 77.9062 246.281 77.9062V83.9062ZM250.195 82.5587C251.237 81.864 252.715 80.6305 254.543 78.9905L250.535 74.5251C248.706 76.1664 247.513 77.136 246.867 77.5663L250.195 82.5587ZM254.515 79.0155C256.397 77.3687 257.587 76.3395 258.116 75.8984L254.275 71.2891C253.679 71.7855 252.431 72.8656 250.564 74.5001L254.515 79.0155ZM258.18 75.8433C258.948 75.1656 260.68 73.6874 263.405 71.3854L259.533 66.8021C256.82 69.0938 255.036 70.6157 254.21 71.3442L258.18 75.8433ZM263.408 71.3824C266.191 69.0239 268.301 67.1167 269.675 65.6918L265.356 61.527C264.199 62.727 262.277 64.4761 259.529 66.8051L263.408 71.3824ZM269.675 65.6918C271.12 64.1933 272.353 62.5321 273.369 60.7135L268.131 57.7865C267.366 59.1554 266.442 60.4004 265.356 61.527L269.675 65.6918ZM273.387 60.6813C274.435 58.7491 275.167 56.6479 275.595 54.3973L269.701 53.2746C269.38 54.9615 268.846 56.4696 268.113 57.8187L273.387 60.6813ZM91.7344 247.57H94.7344V240.351L89.6179 245.444L91.7344 247.57ZM91.7344 252.141L93.966 254.146L94.7344 253.29V252.141H91.7344ZM70.0078 273.797L68.0541 271.52L68.0455 271.528L68.0369 271.535L70.0078 273.797ZM50.7422 286.945L49.4329 284.246L49.4247 284.25L49.4166 284.254L50.7422 286.945ZM19.4531 288.562L17.9904 291.182L17.9976 291.186L18.0048 291.19L19.4531 288.562ZM11.2266 279.703L8.51737 280.992L8.52068 280.999L8.52403 281.006L11.2266 279.703ZM10.4531 252.773L7.57184 251.938L7.56907 251.947L7.56636 251.957L10.4531 252.773ZM16.2891 238.641L18.9347 240.055L18.9404 240.044L16.2891 238.641ZM25.5703 223.875L23.149 222.104L23.1436 222.111L23.1383 222.119L25.5703 223.875ZM38.5781 207.914L36.3419 205.914L36.338 205.919L38.5781 207.914ZM53.8359 193.008L55.7544 195.314L55.7607 195.309L55.767 195.304L53.8359 193.008ZM78.7969 177.75L77.8482 174.904L77.8367 174.908L78.7969 177.75ZM93.2109 207.773L95.8307 209.235L95.8352 209.227L93.2109 207.773ZM64.2422 241.383L66.0856 243.75L66.0887 243.747L64.2422 241.383ZM49.6172 245.391L47.5379 247.553L47.5802 247.594L47.6241 247.633L49.6172 245.391ZM52.0078 231.75L49.6114 229.945L49.6042 229.955L49.5971 229.964L52.0078 231.75ZM61.2891 221.344L63.348 223.526L63.3489 223.525L61.2891 221.344ZM67.0547 219.164L64.3714 217.822L64.3466 217.872L64.3236 217.923L67.0547 219.164ZM84.0703 201.164L81.5185 199.587L81.5145 199.593L84.0703 201.164ZM87.9375 185.414L85.5375 187.214L85.6011 187.299L85.6704 187.379L87.9375 185.414ZM70.3594 192.305L72.2274 194.652L72.2295 194.65L70.3594 192.305ZM49.8281 212.625L47.5449 210.679L47.5439 210.68L49.8281 212.625ZM26.9766 270.844L24.2269 272.044L24.236 272.064L24.2455 272.085L26.9766 270.844ZM32.0391 276.82L30.425 279.349L30.437 279.357L30.4491 279.364L32.0391 276.82ZM88.7344 247.57V252.141H94.7344V247.57H88.7344ZM89.5027 250.136C81.6864 258.836 74.5377 265.956 68.0541 271.52L71.9615 276.074C78.6967 270.294 86.0324 262.976 93.966 254.146L89.5027 250.136ZM68.0369 271.535C61.6276 277.12 55.4249 281.34 49.4329 284.246L52.0515 289.645C58.622 286.457 65.2631 281.911 71.9787 276.059L68.0369 271.535ZM49.4166 284.254C43.4682 287.184 37.8498 288.586 32.5312 288.586V294.586C38.9315 294.586 45.4537 292.894 52.0677 289.637L49.4166 284.254ZM32.5312 288.586C27.8683 288.586 24.029 287.659 20.9015 285.935L18.0048 291.19C22.1897 293.497 27.0692 294.586 32.5312 294.586V288.586ZM20.9158 285.943C17.8704 284.243 15.5489 281.762 13.9291 278.401L8.52403 281.006C10.6543 285.426 13.8171 288.851 17.9904 291.182L20.9158 285.943ZM13.9358 278.415C12.34 275.059 11.4844 270.95 11.4844 265.992H5.48438C5.48438 271.629 6.45686 276.659 8.51737 280.992L13.9358 278.415ZM11.4844 265.992C11.4844 262.135 12.0911 258.005 13.3399 253.59L7.56636 251.957C6.19016 256.823 5.48438 261.505 5.48438 265.992H11.4844ZM13.3344 253.609C14.6301 249.141 16.4922 244.623 18.9347 240.055L13.6435 237.226C11.0234 242.127 8.99485 247.031 7.57184 251.938L13.3344 253.609ZM18.9404 240.044C21.3978 235.403 24.4152 230.598 28.0024 225.631L23.1383 222.119C19.4129 227.277 16.2428 232.316 13.6377 237.237L18.9404 240.044ZM27.9917 225.646C31.6285 220.674 35.9018 215.429 40.8183 209.909L36.338 205.919C31.3169 211.555 26.9183 216.951 23.149 222.104L27.9917 225.646ZM40.8143 209.914C45.8898 204.239 50.8706 199.376 55.7544 195.314L51.9175 190.701C46.7701 194.983 41.579 200.058 36.3419 205.914L40.8143 209.914ZM55.767 195.304C60.6987 191.155 65.1052 187.961 68.9937 185.682L65.9594 180.506C61.6916 183.007 57.0044 186.423 51.9049 190.712L55.767 195.304ZM68.9937 185.682C72.9434 183.367 76.5286 181.683 79.7571 180.592L77.8367 174.908C74.1276 176.161 70.166 178.04 65.9594 180.506L68.9937 185.682ZM79.7456 180.596C83.1188 179.472 85.6773 178.992 87.5156 178.992V172.992C84.7602 172.992 81.5062 173.685 77.8482 174.904L79.7456 180.596ZM87.5156 178.992C89.3642 178.992 90.7384 179.429 91.7956 180.154L95.1888 175.206C92.9647 173.68 90.3545 172.992 87.5156 172.992V178.992ZM91.7956 180.154C92.8781 180.896 93.8087 182.034 94.5163 183.747L100.062 181.456C98.9882 178.857 97.3876 176.713 95.1888 175.206L91.7956 180.154ZM94.5163 183.747C95.2294 185.473 95.625 187.556 95.625 190.055H101.625C101.625 186.928 101.13 184.042 100.062 181.456L94.5163 183.747ZM95.625 190.055C95.625 194.678 94.0443 200.078 90.5867 206.32L95.8352 209.227C99.5964 202.437 101.625 196.025 101.625 190.055H95.625ZM90.5912 206.312C87.0981 212.572 82.7297 218.652 77.4716 224.551L81.9503 228.543C87.4734 222.348 92.105 215.912 95.8307 209.235L90.5912 206.312ZM77.4716 224.551C72.1675 230.5 67.1413 235.312 62.3957 239.018L66.0887 243.747C71.1868 239.766 76.4732 234.687 81.9503 228.543L77.4716 224.551ZM62.3988 239.016C60.03 240.861 58.0784 242.175 56.5238 243.015C54.8895 243.897 54.0113 244.078 53.6953 244.078V250.078C55.5356 250.078 57.4933 249.31 59.3747 248.294C61.3356 247.235 63.5794 245.702 66.0856 243.75L62.3988 239.016ZM53.6953 244.078C53.0964 244.078 52.4231 243.871 51.6103 243.148L47.6241 247.633C49.3425 249.16 51.388 250.078 53.6953 250.078V244.078ZM51.6965 243.228C50.9614 242.521 50.7891 241.956 50.7891 241.453H44.7891C44.7891 243.857 45.8355 245.916 47.5379 247.553L51.6965 243.228ZM50.7891 241.453C50.7891 239.755 51.7283 237.167 54.4185 233.536L49.5971 229.964C46.6623 233.926 44.7891 237.807 44.7891 241.453H50.7891ZM54.4043 233.555C57.1659 229.888 60.1475 226.546 63.348 223.526L59.2301 219.162C55.7744 222.423 52.5685 226.019 49.6114 229.945L54.4043 233.555ZM63.3489 223.525C65.0146 221.952 66.2877 220.827 67.1927 220.111C67.6507 219.749 67.9532 219.541 68.1257 219.438C68.212 219.386 68.2109 219.394 68.1403 219.423C68.1068 219.436 67.8016 219.562 67.3359 219.562V213.562C66.7062 213.562 66.1944 213.739 65.912 213.852C65.5923 213.98 65.2997 214.137 65.052 214.285C64.5566 214.58 64.0212 214.97 63.4713 215.405C62.3607 216.283 60.9385 217.548 59.2292 219.163L63.3489 223.525ZM67.3359 219.562C67.141 219.562 66.435 219.531 65.7527 218.946C64.9819 218.285 64.8281 217.437 64.8281 216.984H70.8281C70.8281 216.25 70.5924 215.192 69.6575 214.39C68.8111 213.665 67.859 213.562 67.3359 213.562V219.562ZM64.8281 216.984C64.8281 216.887 64.8354 216.814 64.8408 216.772C64.8464 216.729 64.8519 216.704 64.8526 216.701C64.8533 216.698 64.8433 216.742 64.8075 216.842C64.7343 217.049 64.5984 217.369 64.3714 217.822L69.738 220.506C70.0266 219.928 70.2774 219.369 70.462 218.849C70.627 218.384 70.8281 217.711 70.8281 216.984H64.8281ZM64.3236 217.923C64.0765 218.466 63.8673 218.956 63.7141 219.37C63.6379 219.576 63.561 219.802 63.4994 220.029C63.4519 220.205 63.3516 220.598 63.3516 221.062H69.3516C69.3516 221.265 69.3281 221.414 69.3174 221.474C69.3051 221.545 69.2935 221.588 69.2916 221.595C69.2886 221.606 69.2996 221.565 69.3406 221.454C69.4217 221.235 69.5642 220.893 69.7858 220.405L64.3236 217.923ZM63.3516 221.062C63.3516 221.538 63.4256 222.442 64.057 223.284C64.8102 224.289 65.9008 224.625 66.7734 224.625V218.625C67.3648 218.625 68.2445 218.868 68.857 219.684C69.3479 220.339 69.3516 220.962 69.3516 221.062H63.3516ZM66.7734 224.625C67.4857 224.625 68.0606 224.403 68.385 224.256C68.7471 224.091 69.076 223.887 69.3551 223.695C69.9136 223.31 70.5148 222.8 71.1351 222.224C72.388 221.06 73.9855 219.378 75.9049 217.221L71.4232 213.232C69.5457 215.341 68.0964 216.858 67.0524 217.827C66.5243 218.317 66.1646 218.607 65.9496 218.755C65.8419 218.829 65.831 218.826 65.9001 218.794C65.9316 218.78 66.2604 218.625 66.7734 218.625V224.625ZM75.9049 217.221C79.8247 212.817 83.3978 207.987 86.6261 202.735L81.5145 199.593C78.4616 204.56 75.0972 209.104 71.4232 213.232L75.9049 217.221ZM86.6221 202.742C89.891 197.454 91.8516 192.645 91.8516 188.508H85.8516C85.8516 190.933 84.6246 194.562 81.5185 199.587L86.6221 202.742ZM91.8516 188.508C91.8516 186.752 91.4633 184.902 90.2046 183.449L85.6704 187.379C85.6304 187.333 85.8516 187.545 85.8516 188.508H91.8516ZM90.3375 183.614C89.0679 181.921 87.1902 181.289 85.3359 181.289V187.289C85.6078 187.289 85.6956 187.333 85.6745 187.324C85.6629 187.319 85.6358 187.305 85.6033 187.279C85.5707 187.254 85.5486 187.229 85.5375 187.214L90.3375 183.614ZM85.3359 181.289C82.9632 181.289 80.3724 182.226 77.7152 183.648C74.9997 185.101 71.9185 187.225 68.4893 189.959L72.2295 194.65C75.5033 192.041 78.2698 190.156 80.5465 188.938C82.8815 187.688 84.4274 187.289 85.3359 187.289V181.289ZM68.4913 189.957C61.6496 195.402 54.6691 202.32 47.5449 210.679L52.1114 214.571C59.0497 206.43 65.7566 199.801 72.2274 194.652L68.4913 189.957ZM47.5439 210.68C40.432 219.033 34.4715 227.694 29.6748 236.663L34.9658 239.493C39.5441 230.931 45.2555 222.623 52.1123 214.57L47.5439 210.68ZM29.6748 236.663C24.8604 245.666 22.2891 253.877 22.2891 261.211H28.2891C28.2891 255.232 30.4052 248.021 34.9658 239.493L29.6748 236.663ZM22.2891 261.211C22.2891 265.325 22.8881 268.975 24.2269 272.044L29.7262 269.644C28.815 267.556 28.2891 264.784 28.2891 261.211H22.2891ZM24.2455 272.085C25.6365 275.145 27.6919 277.605 30.425 279.349L33.6532 274.292C31.9799 273.224 30.6604 271.698 29.7077 269.602L24.2455 272.085ZM30.4491 279.364C33.2574 281.12 36.5267 281.93 40.125 281.93V275.93C37.4421 275.93 35.3207 275.334 33.6291 274.276L30.4491 279.364ZM40.125 281.93C47.6839 281.93 55.9461 278.995 64.8278 273.541L61.6878 268.428C53.3195 273.567 46.1598 275.93 40.125 275.93V281.93ZM64.8278 273.541C73.7172 268.082 83.3926 260.107 93.8509 249.696L89.6179 245.444C79.3574 255.658 70.0484 263.293 61.6878 268.428L64.8278 273.541ZM99.3984 235.266L97.3819 233.044L97.3583 233.066L97.3352 233.088L99.3984 235.266ZM138.422 217.406L136.301 219.528L136.331 219.558L136.362 219.587L138.422 217.406ZM140.391 220.219L137.639 221.415L137.661 221.464L137.684 221.513L140.391 220.219ZM140.18 224.508L141.668 227.113L141.736 227.074L141.802 227.031L140.18 224.508ZM136.734 225.914L135.761 223.076L132.68 224.133L133.986 227.117L136.734 225.914ZM139.195 231.68L136.386 232.733L136.398 232.764L136.41 232.794L139.195 231.68ZM136.172 239.906L133.763 238.118L133.759 238.124L136.172 239.906ZM131.391 246.656L128.87 245.03L128.851 245.059L128.833 245.089L131.391 246.656ZM150.234 247.992H153.234V241.36L148.254 245.739L150.234 247.992ZM150.234 252.281L152.464 254.289L153.234 253.433V252.281H150.234ZM120.844 270.211L118.317 271.828L118.325 271.84L118.333 271.853L120.844 270.211ZM123.727 248.836L126.531 249.902L121.498 246.828L123.727 248.836ZM108.469 265.078L110.544 267.245L110.552 267.237L110.56 267.23L108.469 265.078ZM92.2266 260.297L89.4506 261.435L89.462 261.462L89.4739 261.49L92.2266 260.297ZM91.1016 245.953L93.9826 246.79L93.9861 246.777L93.9895 246.765L91.1016 245.953ZM133.078 227.531L135.52 229.274L142.045 220.128L131.83 224.803L133.078 227.531ZM106.992 241.734L105.196 239.332L105.185 239.34L106.992 241.734ZM100.031 257.484L97.3738 258.876L97.3879 258.903L97.4026 258.93L100.031 257.484ZM104.883 257.906L106.224 260.59L106.318 260.543L106.408 260.49L104.883 257.906ZM118.383 246.586L120.636 248.566L120.641 248.561L120.646 248.555L118.383 246.586ZM101.415 237.487C108.381 231.162 115.049 226.55 121.413 223.568L118.868 218.135C111.826 221.434 104.666 226.431 97.3819 233.044L101.415 237.487ZM121.413 223.568C128.045 220.461 132.719 219.141 135.68 219.141V213.141C131.327 213.141 125.643 214.961 118.868 218.135L121.413 223.568ZM135.68 219.141C135.705 219.141 135.892 219.119 136.301 219.528L140.543 215.285C139.264 214.006 137.623 213.141 135.68 213.141V219.141ZM136.362 219.587C136.907 220.102 137.33 220.703 137.639 221.415L143.142 219.023C142.514 217.578 141.624 216.304 140.482 215.225L136.362 219.587ZM137.684 221.513C137.907 221.978 138.042 222.318 138.116 222.548C138.153 222.661 138.168 222.726 138.172 222.748C138.177 222.775 138.164 222.722 138.164 222.609H144.164C144.164 221.351 143.616 220.009 143.097 218.924L137.684 221.513ZM138.164 222.609C138.164 222.639 138.16 222.518 138.255 222.336C138.354 222.144 138.488 222.029 138.557 221.984L141.802 227.031C143.397 226.006 144.164 224.375 144.164 222.609H138.164ZM138.691 221.903C138.303 222.125 137.392 222.517 135.761 223.076L137.707 228.752C139.358 228.186 140.744 227.641 141.668 227.113L138.691 221.903ZM133.986 227.117C134.315 227.869 134.738 228.832 135.254 230.005L140.746 227.589C140.231 226.418 139.81 225.459 139.483 224.712L133.986 227.117ZM135.254 230.005C135.759 231.152 136.133 232.057 136.386 232.733L142.004 230.626C141.695 229.803 141.272 228.785 140.746 227.589L135.254 230.005ZM136.41 232.794C136.596 233.258 136.617 233.504 136.617 233.578H142.617C142.617 232.527 142.358 231.508 141.981 230.566L136.41 232.794ZM136.617 233.578C136.617 233.329 136.669 233.562 136.121 234.569C135.641 235.45 134.871 236.625 133.763 238.118L138.581 241.695C139.769 240.094 140.722 238.667 141.391 237.438C141.991 236.336 142.617 234.952 142.617 233.578H136.617ZM133.759 238.124C131.504 241.177 129.862 243.491 128.87 245.03L133.912 248.283C134.794 246.915 136.339 244.729 138.585 241.688L133.759 238.124ZM128.833 245.089C127.591 247.114 127.055 249.468 127.055 252H133.055C133.055 250.313 133.409 249.105 133.948 248.224L128.833 245.089ZM127.055 252C127.055 254.137 127.54 256.299 129.041 257.932C130.586 259.613 132.711 260.203 134.836 260.203V254.203C133.773 254.203 133.508 253.926 133.459 253.872C133.366 253.771 133.055 253.332 133.055 252H127.055ZM134.836 260.203C137.304 260.203 139.982 259.093 142.687 257.475C145.47 255.81 148.652 253.378 152.215 250.245L148.254 245.739C144.832 248.747 141.956 250.921 139.606 252.326C137.178 253.778 135.65 254.203 134.836 254.203V260.203ZM147.234 247.992V252.281H153.234V247.992H147.234ZM148.005 250.274C142.128 256.801 137.178 261.593 133.137 264.73C128.946 267.983 126.249 269.039 124.781 269.039V275.039C128.423 275.039 132.523 272.802 136.816 269.469C141.26 266.02 146.481 260.933 152.464 254.289L148.005 250.274ZM124.781 269.039C123.672 269.039 123.454 268.721 123.355 268.569L118.333 271.853C119.827 274.139 122.234 275.039 124.781 275.039V269.039ZM123.371 268.594C123.075 268.133 122.719 267.058 122.719 264.938H116.719C116.719 267.505 117.112 269.946 118.317 271.828L123.371 268.594ZM122.719 264.938C122.719 261.809 123.883 256.87 126.531 249.902L120.922 247.77C118.226 254.865 116.719 260.66 116.719 264.938H122.719ZM121.498 246.828C114.659 254.416 109.63 259.767 106.378 262.927L110.56 267.23C113.964 263.921 119.107 258.443 125.955 250.844L121.498 246.828ZM106.394 262.912C104.831 264.408 103.505 265.433 102.409 266.07C101.294 266.718 100.599 266.859 100.242 266.859V272.859C102.042 272.859 103.796 272.204 105.423 271.258C107.07 270.301 108.778 268.936 110.544 267.245L106.394 262.912ZM100.242 266.859C100.577 266.859 100.594 266.991 100.207 266.723C99.8455 266.473 99.3228 266.007 98.6401 265.22L94.1099 269.155C94.9741 270.15 95.8693 271.019 96.7967 271.66C97.6985 272.283 98.8762 272.859 100.242 272.859V266.859ZM98.6401 265.22C97.3442 263.728 96.1104 261.714 94.9792 259.104L89.4739 261.49C90.7802 264.504 92.3121 267.084 94.1099 269.155L98.6401 265.22ZM95.0025 259.159C93.9764 256.656 93.4688 254.089 93.4688 251.438H87.4688C87.4688 254.88 88.133 258.219 89.4506 261.435L95.0025 259.159ZM93.4688 251.438C93.4688 249.401 93.6666 247.878 93.9826 246.79L88.2205 245.117C87.6928 246.935 87.4688 249.068 87.4688 251.438H93.4688ZM93.9895 246.765C94.2805 245.731 94.8823 244.555 95.919 243.239L91.206 239.526C89.8052 241.304 88.7664 243.175 88.2136 245.141L93.9895 246.765ZM95.919 243.239C97.0015 241.865 98.8214 239.945 101.462 237.443L97.3352 233.088C94.6317 235.649 92.561 237.806 91.206 239.526L95.919 243.239ZM131.83 224.803C119.607 230.397 110.668 235.24 105.196 239.332L108.789 244.137C113.723 240.448 122.174 235.821 134.327 230.259L131.83 224.803ZM105.185 239.34C99.7101 243.471 96.2578 248.257 96.2578 253.758H102.258C102.258 251.008 103.962 247.779 108.799 244.129L105.185 239.34ZM96.2578 253.758C96.2578 255.581 96.5684 257.339 97.3738 258.876L102.689 256.092C102.463 255.661 102.258 254.935 102.258 253.758H96.2578ZM97.4026 258.93C98.319 260.596 99.9165 261.891 102.141 261.891V255.891C102.184 255.891 102.26 255.897 102.354 255.925C102.45 255.953 102.538 255.995 102.609 256.043C102.752 256.138 102.746 256.195 102.66 256.039L97.4026 258.93ZM102.141 261.891C102.927 261.891 103.679 261.665 104.226 261.468C104.837 261.249 105.51 260.947 106.224 260.59L103.541 255.223C102.944 255.522 102.503 255.712 102.199 255.821C102.049 255.875 101.963 255.898 101.931 255.905C101.888 255.915 101.971 255.891 102.141 255.891V261.891ZM106.408 260.49C111.624 257.41 116.366 253.426 120.636 248.566L116.129 244.606C112.244 249.027 107.985 252.59 103.357 255.323L106.408 260.49ZM120.646 248.555C124.813 243.766 129.774 237.328 135.52 229.274L130.636 225.789C124.945 233.766 120.109 240.031 116.119 244.617L120.646 248.555ZM177.375 211.359V214.359H179.137L179.995 212.821L177.375 211.359ZM184.125 201.938L186.14 204.16L186.154 204.147L186.168 204.134L184.125 201.938ZM187.289 211.711L184.729 210.147L182.287 214.143L186.939 214.69L187.289 211.711ZM191.508 212.203L191.164 215.183L191.177 215.185L191.508 212.203ZM194.461 212.555L197.103 213.976L199.158 210.154L194.857 209.581L194.461 212.555ZM184.406 227.812L184.193 230.805L185.794 230.919L186.778 229.65L184.406 227.812ZM181.102 227.602L180.788 230.585L180.866 230.593L180.944 230.597L181.102 227.602ZM178.359 227.391L178.045 230.374L178.127 230.383L178.21 230.387L178.359 227.391ZM175.055 227.109L175.268 224.117L173.461 223.988L172.506 225.527L175.055 227.109ZM168.656 238.078L166.012 236.66L166.009 236.667L166.005 236.674L168.656 238.078ZM164.719 246.867L161.888 245.874L161.88 245.896L161.873 245.919L164.719 246.867ZM174.211 256.5L175.856 259.009L175.866 259.002L174.211 256.5ZM185.812 247.711H188.812V241.393L183.916 245.386L185.812 247.711ZM185.812 252.422L188.019 254.455L188.812 253.593V252.422H185.812ZM152.625 270.562L150.25 272.395L150.266 272.416L150.282 272.437L152.625 270.562ZM151.781 258.047L148.919 257.149L148.911 257.175L148.903 257.2L151.781 258.047ZM155.719 247.219L158.515 248.305L153.766 244.941L155.719 247.219ZM153.82 248.906L155.847 251.118L155.855 251.111L153.82 248.906ZM152.203 250.383L154.21 252.613L154.216 252.608L154.221 252.603L152.203 250.383ZM150.656 251.789L152.577 254.094L152.631 254.048L152.683 254.001L150.656 251.789ZM148.969 253.266H145.969V260.085L150.996 255.477L148.969 253.266ZM148.969 248.414L147.042 246.115L145.969 247.014V248.414H148.969ZM166.828 226.688L169.316 228.365L172.231 224.041L167.028 223.694L166.828 226.688ZM164.859 226.617L164.629 229.608L164.744 229.617H164.859V226.617ZM156.492 227.109L157.22 230.02L157.255 230.011L157.29 230.001L156.492 227.109ZM154.875 227.602L155.737 230.475L155.819 230.45L155.9 230.421L154.875 227.602ZM156.492 220.43L159.041 222.013L159.059 221.983L159.077 221.953L156.492 220.43ZM160.852 214.594L158.845 212.364L158.826 212.381L158.807 212.398L160.852 214.594ZM165.914 212.062L166.543 214.996L166.568 214.99L166.594 214.985L165.914 212.062ZM174.352 214.359H177.375V208.359H174.352V214.359ZM179.995 212.821C182.434 208.449 184.493 205.654 186.14 204.16L182.11 199.715C179.726 201.878 177.285 205.363 174.755 209.898L179.995 212.821ZM186.168 204.134C187.67 202.737 189.25 202.125 191.016 202.125V196.125C187.625 196.125 184.611 197.388 182.082 199.741L186.168 204.134ZM191.016 202.125C191.554 202.125 191.962 202.156 192.258 202.201C192.564 202.247 192.679 202.298 192.675 202.296C192.665 202.291 192.443 202.189 192.222 201.888C191.977 201.554 191.883 201.177 191.883 200.883H197.883C197.883 200.003 197.628 199.113 197.06 198.34C196.517 197.599 195.812 197.131 195.157 196.833C193.923 196.272 192.438 196.125 191.016 196.125V202.125ZM191.883 200.883C191.883 200.538 191.954 200.302 191.973 200.24C191.998 200.161 192.014 200.136 191.993 200.18C191.948 200.271 191.84 200.467 191.625 200.792C191.2 201.434 190.514 202.349 189.53 203.563L194.189 207.343C195.22 206.073 196.046 204.984 196.629 204.102C196.918 203.666 197.187 203.22 197.395 202.79C197.552 202.465 197.883 201.744 197.883 200.883H191.883ZM189.53 203.563C187.475 206.096 185.859 208.298 184.729 210.147L189.849 213.275C190.782 211.749 192.213 209.779 194.189 207.343L189.53 203.563ZM186.939 214.69C188.534 214.878 189.942 215.042 191.164 215.183L191.852 209.223C190.636 209.083 189.232 208.919 187.64 208.731L186.939 214.69ZM191.177 215.185C192.435 215.325 193.394 215.439 194.064 215.528L194.857 209.581C194.122 209.483 193.112 209.363 191.839 209.221L191.177 215.185ZM191.819 211.134C189.237 215.935 185.981 220.882 182.035 225.975L186.778 229.65C190.894 224.337 194.341 219.112 197.103 213.976L191.819 211.134ZM184.62 224.82C183.297 224.726 182.175 224.654 181.259 224.606L180.944 230.597C181.809 230.643 182.891 230.712 184.193 230.805L184.62 224.82ZM181.416 224.618C180.468 224.518 179.499 224.444 178.509 224.394L178.21 230.387C179.095 230.431 179.954 230.497 180.788 230.585L181.416 224.618ZM178.673 224.407C177.738 224.309 176.6 224.212 175.268 224.117L174.841 230.102C176.134 230.194 177.2 230.285 178.045 230.374L178.673 224.407ZM172.506 225.527C169.951 229.644 167.784 233.356 166.012 236.66L171.3 239.496C172.997 236.331 175.096 232.731 177.604 228.691L172.506 225.527ZM166.005 236.674C164.265 239.96 162.886 243.029 161.888 245.874L167.55 247.86C168.426 245.362 169.672 242.571 171.308 239.482L166.005 236.674ZM161.873 245.919C160.898 248.843 160.383 251.696 160.383 254.461H166.383C166.383 252.444 166.758 250.235 167.565 247.816L161.873 245.919ZM160.383 254.461C160.383 256.397 160.755 258.403 162.004 259.97C163.356 261.666 165.295 262.312 167.25 262.312V256.312C166.914 256.312 166.758 256.259 166.716 256.242C166.691 256.231 166.699 256.234 166.696 256.23C166.655 256.179 166.383 255.759 166.383 254.461H160.383ZM167.25 262.312C169.945 262.312 172.886 260.956 175.856 259.009L172.566 253.991C169.817 255.794 168.117 256.312 167.25 256.312V262.312ZM175.866 259.002C178.896 256.999 182.853 253.996 187.709 250.036L183.916 245.386C179.116 249.301 175.339 252.158 172.556 253.998L175.866 259.002ZM182.812 247.711V252.422H188.812V247.711H182.812ZM183.606 250.389C177.34 257.189 171.987 262.183 167.531 265.455C162.967 268.806 159.778 270.023 157.758 270.023V276.023C161.784 276.023 166.294 273.807 171.082 270.291C175.978 266.696 181.628 261.389 188.019 254.455L183.606 250.389ZM157.758 270.023C156.556 270.023 155.708 269.614 154.968 268.688L150.282 272.437C152.167 274.792 154.741 276.023 157.758 276.023V270.023ZM155 268.73C154.23 267.732 153.727 266.315 153.727 264.234H147.727C147.727 267.31 148.489 270.112 150.25 272.395L155 268.73ZM153.727 264.234C153.727 262.881 154.005 261.118 154.659 258.893L148.903 257.2C148.151 259.757 147.727 262.119 147.727 264.234H153.727ZM154.644 258.945C155.362 256.654 156.645 253.122 158.515 248.305L152.922 246.133C151.043 250.972 149.7 254.658 148.919 257.149L154.644 258.945ZM153.766 244.941C153.083 245.526 152.423 246.113 151.785 246.702L155.855 251.111C156.436 250.574 157.042 250.036 157.671 249.497L153.766 244.941ZM151.793 246.695C151.233 247.208 150.697 247.697 150.185 248.163L154.221 252.603C154.74 252.131 155.282 251.636 155.847 251.118L151.793 246.695ZM150.196 248.153C149.719 248.582 149.197 249.057 148.629 249.578L152.683 254.001C153.241 253.49 153.749 253.027 154.21 252.613L150.196 248.153ZM148.736 249.484C148.135 249.985 147.537 250.508 146.942 251.054L150.996 255.477C151.525 254.992 152.052 254.531 152.577 254.094L148.736 249.484ZM151.969 253.266V248.414H145.969V253.266H151.969ZM150.896 250.713C156.15 246.31 162.293 238.781 169.316 228.365L164.341 225.01C157.395 235.313 151.631 242.268 147.042 246.115L150.896 250.713ZM167.028 223.694C166.268 223.644 165.545 223.617 164.859 223.617V229.617C165.393 229.617 165.982 229.638 166.629 229.681L167.028 223.694ZM165.089 223.626C164.381 223.572 163.574 223.547 162.68 223.547V229.547C163.473 229.547 164.119 229.569 164.629 229.608L165.089 223.626ZM162.68 223.547C159.85 223.547 157.457 223.731 155.694 224.217L157.29 230.001C158.246 229.738 159.978 229.547 162.68 229.547V223.547ZM155.765 224.199C155.107 224.363 154.468 224.557 153.85 224.782L155.9 230.421C156.313 230.271 156.752 230.137 157.22 230.02L155.765 224.199ZM154.013 224.728C153.921 224.756 153.845 224.777 153.782 224.794C153.719 224.811 153.675 224.821 153.649 224.826C153.621 224.832 153.624 224.831 153.652 224.827C153.667 224.825 153.694 224.821 153.731 224.819C153.768 224.816 153.822 224.812 153.891 224.812V230.812C154.575 230.812 155.298 230.607 155.737 230.475L154.013 224.728ZM153.891 224.812C154.221 224.812 154.655 224.876 155.109 225.103C155.576 225.336 155.932 225.677 156.176 226.043C156.61 226.695 156.609 227.293 156.609 227.391H150.609C150.609 227.77 150.655 228.579 151.184 229.371C151.855 230.378 152.923 230.812 153.891 230.812V224.812ZM156.609 227.391C156.609 227.181 156.69 226.633 157.102 225.638C157.499 224.679 158.131 223.477 159.041 222.013L153.944 218.847C152.931 220.476 152.122 221.981 151.558 223.342C151.01 224.667 150.609 226.054 150.609 227.391H156.609ZM159.077 221.953C160.558 219.439 161.84 217.773 162.896 216.789L158.807 212.398C157.145 213.946 155.52 216.17 153.908 218.907L159.077 221.953ZM162.858 216.824C163.85 215.932 165.053 215.315 166.543 214.996L165.285 209.129C162.838 209.654 160.666 210.725 158.845 212.364L162.858 216.824ZM166.594 214.985C168.281 214.592 170.829 214.359 174.352 214.359V208.359C170.656 208.359 167.578 208.595 165.235 209.14L166.594 214.985ZM219.281 247.078H222.281V240.218L217.244 244.876L219.281 247.078ZM219.281 252.281L221.676 254.088L222.281 253.286V252.281H219.281ZM187.5 266.344L184.831 267.713L184.841 267.733L184.852 267.754L187.5 266.344ZM188.062 234.984L190.9 235.957L190.902 235.951L188.062 234.984ZM197.062 214.945L194.443 213.482L194.44 213.488L197.062 214.945ZM208.805 197.227L206.468 195.345L206.466 195.347L208.805 197.227ZM220.125 186.609L221.632 189.203L221.65 189.193L221.668 189.182L220.125 186.609ZM225.398 186.68L222.583 187.717L222.593 187.742L222.602 187.767L225.398 186.68ZM217.945 215.156L220.563 216.621L220.567 216.615L217.945 215.156ZM195.797 244.195L193.63 242.121L193.018 242.76L192.851 243.629L195.797 244.195ZM196.992 257.133L194.506 258.811L194.52 258.832L194.534 258.853L196.992 257.133ZM206.203 258.609L207.847 261.119L207.877 261.099L207.906 261.079L206.203 258.609ZM198.258 234.422L195.326 233.788L193.209 243.575L200.358 236.564L198.258 234.422ZM205.289 226.266L202.893 224.46L202.885 224.472L202.876 224.483L205.289 226.266ZM216.469 207.141L213.706 205.97L213.698 205.99L213.69 206.01L216.469 207.141ZM215.484 200.039L213.855 197.52L213.713 197.612L213.583 197.719L215.484 200.039ZM205.852 213.82L208.509 215.213L208.513 215.206L205.852 213.82ZM216.281 247.078V252.281H222.281V247.078H216.281ZM216.886 250.474C212.06 256.872 207.784 261.531 204.062 264.563C200.282 267.642 197.423 268.758 195.375 268.758V274.758C199.467 274.758 203.663 272.627 207.852 269.215C212.099 265.755 216.706 260.675 221.676 254.088L216.886 250.474ZM195.375 268.758C193.428 268.758 191.691 267.831 190.148 264.934L184.852 267.754C187.153 272.075 190.666 274.758 195.375 274.758V268.758ZM190.169 264.975C188.586 261.886 187.688 257.624 187.688 252H181.688C181.688 258.188 182.664 263.489 184.831 267.713L190.169 264.975ZM187.688 252C187.688 247.663 188.714 242.335 190.9 235.957L185.225 234.011C182.911 240.759 181.688 246.775 181.688 252H187.688ZM190.902 235.951C193.089 229.528 196.013 223.012 199.685 216.402L194.44 213.488C190.612 220.379 187.536 227.222 185.223 234.018L190.902 235.951ZM199.682 216.408C203.413 209.729 207.236 203.967 211.143 199.106L206.466 195.347C202.311 200.517 198.306 206.568 194.443 213.482L199.682 216.408ZM211.141 199.109C215.114 194.177 218.617 190.955 221.632 189.203L218.618 184.015C214.696 186.295 210.652 190.151 206.468 195.345L211.141 199.109ZM221.668 189.182C222.275 188.818 222.74 188.591 223.079 188.462C223.436 188.325 223.53 188.344 223.43 188.344V182.344C221.761 182.344 220.056 183.152 218.582 184.037L221.668 189.182ZM223.43 188.344C223.467 188.344 223.253 188.348 222.976 188.16C222.69 187.966 222.592 187.741 222.583 187.717L228.213 185.643C227.876 184.728 227.287 183.835 226.345 183.195C225.411 182.562 224.377 182.344 223.43 182.344V188.344ZM222.602 187.767C222.707 188.037 222.891 189.007 222.891 191.109H228.891C228.891 188.993 228.746 187.01 228.194 185.592L222.602 187.767ZM222.891 191.109C222.891 196.879 220.52 204.363 215.324 213.697L220.567 216.615C225.965 206.918 228.891 198.371 228.891 191.109H222.891ZM215.327 213.692C210.182 222.89 202.967 232.368 193.63 242.121L197.964 246.27C207.565 236.241 215.115 226.36 220.563 216.621L215.327 213.692ZM192.851 243.629C192.372 246.119 192.094 248.218 192.094 249.82H198.094C198.094 248.798 198.284 247.146 198.743 244.762L192.851 243.629ZM192.094 249.82C192.094 253.227 192.812 256.302 194.506 258.811L199.479 255.454C198.641 254.213 198.094 252.414 198.094 249.82H192.094ZM194.534 258.853C196.411 261.534 199.135 262.945 202.406 262.945V256.945C201.084 256.945 200.199 256.482 199.45 255.412L194.534 258.853ZM202.406 262.945C204.348 262.945 206.182 262.21 207.847 261.119L204.559 256.1C203.506 256.79 202.809 256.945 202.406 256.945V262.945ZM207.906 261.079C209.396 260.052 210.93 258.816 212.507 257.387L208.478 252.941C207.055 254.231 205.729 255.292 204.5 256.14L207.906 261.079ZM212.507 257.387C214.02 256.016 216.96 253.31 221.318 249.281L217.244 244.876C212.883 248.908 209.965 251.593 208.478 252.941L212.507 257.387ZM200.358 236.564C202.921 234.05 205.368 231.209 207.702 228.048L202.876 224.483C200.71 227.416 198.47 230.012 196.157 232.28L200.358 236.564ZM207.685 228.072C210.057 224.924 212.279 221.566 214.352 217.999L209.164 214.985C207.205 218.356 205.115 221.513 202.893 224.46L207.685 228.072ZM214.352 217.999C216.415 214.448 218.055 211.202 219.248 208.271L213.69 206.01C212.632 208.611 211.131 211.599 209.164 214.985L214.352 217.999ZM219.231 208.311C220.422 205.501 221.227 202.937 221.227 200.883H215.227C215.227 201.642 214.859 203.249 213.706 205.97L219.231 208.311ZM221.227 200.883C221.227 200.088 221.105 198.959 220.408 197.957C219.573 196.757 218.297 196.266 217.102 196.266V202.266C216.93 202.266 216.635 202.234 216.297 202.072C215.945 201.903 215.669 201.651 215.483 201.383C215.16 200.92 215.227 200.599 215.227 200.883H221.227ZM217.102 196.266C216.239 196.266 215.51 196.6 215.192 196.753C214.76 196.959 214.306 197.228 213.855 197.52L217.114 202.558C217.281 202.45 217.421 202.364 217.537 202.297C217.654 202.229 217.734 202.188 217.781 202.165C217.833 202.14 217.815 202.153 217.742 202.176C217.703 202.188 217.631 202.209 217.534 202.227C217.439 202.245 217.29 202.266 217.102 202.266V196.266ZM213.583 197.719C210.222 200.473 206.781 205.538 203.191 212.435L208.513 215.206C212.047 208.415 215.028 204.292 217.386 202.359L213.583 197.719ZM203.194 212.428C199.517 219.445 196.887 226.566 195.326 233.788L201.19 235.056C202.629 228.403 205.062 221.79 208.509 215.213L203.194 212.428ZM263.93 247.711H266.93V241.711L262.13 245.311L263.93 247.711ZM263.93 252.422L265.948 254.642L266.93 253.749V252.422H263.93ZM248.391 259.172L248.55 256.176L247.061 256.097L246.098 257.237L248.391 259.172ZM219.914 260.297L217.15 261.463L217.158 261.481L217.166 261.499L219.914 260.297ZM220.969 240.258L218.342 238.809L218.334 238.822L218.327 238.836L220.969 240.258ZM238.898 222.398L240.308 225.046L240.322 225.039L240.335 225.032L238.898 222.398ZM254.156 220.5L252.699 223.122L252.737 223.143L252.775 223.163L254.156 220.5ZM254.438 226.547L252.191 224.559L248.775 228.42L253.819 229.483L254.438 226.547ZM258.094 228.445L255.679 230.225L255.702 230.256L255.726 230.287L258.094 228.445ZM257.461 241.664L254.6 240.763L254.594 240.78L254.589 240.798L257.461 241.664ZM253.172 251.297L250.61 249.736L249.383 251.75L251.051 253.418L253.172 251.297ZM254.438 252.562L252.316 254.684L253.195 255.562H254.438V252.562ZM257.812 252L259.154 254.683L259.185 254.668L259.216 254.651L257.812 252ZM259.922 250.734L261.63 253.201L261.691 253.158L261.751 253.112L259.922 250.734ZM249.445 229.219L252.018 230.762L247.897 226.649L249.445 229.219ZM239.461 235.617L241.144 238.1L241.159 238.091L241.173 238.081L239.461 235.617ZM232.43 241.383L234.551 243.504L234.564 243.491L234.576 243.478L232.43 241.383ZM228.562 247.219L225.716 246.27L225.668 246.416L225.635 246.565L228.562 247.219ZM243.398 255.164L245.171 257.584L246.984 256.256L246.22 254.144L243.398 255.164ZM244.031 239.836L246.817 240.95L246.82 240.943L246.822 240.936L244.031 239.836ZM260.93 247.711V252.422H266.93V247.711H260.93ZM261.912 250.202C258.862 252.975 256.626 254.618 255.135 255.364L257.818 260.73C260.077 259.601 262.81 257.494 265.948 254.642L261.912 250.202ZM255.135 255.364C253.941 255.961 251.858 256.353 248.55 256.176L248.231 262.168C251.954 262.366 255.262 262.008 257.818 260.73L255.135 255.364ZM246.098 257.237C243.156 260.722 240.494 263.207 238.121 264.804C235.744 266.402 233.821 267 232.289 267V273C235.398 273 238.479 271.793 241.469 269.782C244.463 267.769 247.531 264.841 250.683 261.107L246.098 257.237ZM232.289 267C230.387 267 228.652 266.392 226.997 265.061L223.237 269.736C225.895 271.874 228.941 273 232.289 273V267ZM226.997 265.061C225.281 263.68 223.817 261.733 222.663 259.094L217.166 261.499C218.636 264.861 220.641 267.648 223.237 269.736L226.997 265.061ZM222.678 259.131C221.588 256.547 221.016 253.6 221.016 250.242H215.016C215.016 254.291 215.709 258.047 217.15 261.463L222.678 259.131ZM221.016 250.242C221.016 247.893 221.791 245.059 223.61 241.68L218.327 238.836C216.209 242.77 215.016 246.592 215.016 250.242H221.016ZM223.596 241.706C225.467 238.312 227.871 235.138 230.824 232.184L226.582 227.941C223.254 231.269 220.502 234.891 218.342 238.809L223.596 241.706ZM230.824 232.184C233.823 229.185 236.986 226.815 240.308 225.046L237.488 219.75C233.592 221.825 229.958 224.565 226.582 227.941L230.824 232.184ZM240.335 225.032C243.643 223.228 246.499 222.445 248.953 222.445V216.445C245.219 216.445 241.372 217.632 237.462 219.765L240.335 225.032ZM248.953 222.445C250.89 222.445 252.053 222.763 252.699 223.122L255.613 217.878C253.729 216.83 251.422 216.445 248.953 216.445V222.445ZM252.775 223.163C253.077 223.32 253.121 223.415 253.094 223.374C253.08 223.354 253.066 223.325 253.057 223.296C253.05 223.269 253.055 223.27 253.055 223.312H259.055C259.055 222.154 258.744 221.02 258.067 220.017C257.406 219.038 256.501 218.337 255.537 217.837L252.775 223.163ZM253.055 223.312C253.055 223.202 253.086 223.245 252.967 223.483C252.847 223.723 252.613 224.082 252.191 224.559L256.684 228.535C257.922 227.136 259.055 225.358 259.055 223.312H253.055ZM253.819 229.483C255.315 229.797 255.666 230.207 255.679 230.225L260.509 226.666C259.209 224.902 257.122 224.046 255.056 223.611L253.819 229.483ZM255.726 230.287C255.668 230.213 255.782 230.327 255.895 230.869C256.004 231.387 256.078 232.134 256.078 233.156H262.078C262.078 231.882 261.989 230.695 261.769 229.642C261.554 228.615 261.176 227.521 260.462 226.603L255.726 230.287ZM256.078 233.156C256.078 234.974 255.634 237.481 254.6 240.763L260.322 242.566C261.445 239.004 262.078 235.838 262.078 233.156H256.078ZM254.589 240.798C253.63 243.98 252.303 246.957 250.61 249.736L255.734 252.858C257.697 249.637 259.23 246.191 260.333 242.53L254.589 240.798ZM251.051 253.418L252.316 254.684L256.559 250.441L255.293 249.176L251.051 253.418ZM254.438 255.562H255.492V249.562H254.438V255.562ZM255.492 255.562C256.779 255.562 258.01 255.255 259.154 254.683L256.471 249.317C256.115 249.495 255.799 249.562 255.492 249.562V255.562ZM259.216 254.651C260.096 254.185 260.904 253.703 261.63 253.201L258.214 248.268C257.721 248.61 257.122 248.971 256.409 249.349L259.216 254.651ZM261.751 253.112C262.343 252.657 263.664 251.661 265.73 250.111L262.13 245.311C260.071 246.855 258.719 247.874 258.093 248.357L261.751 253.112ZM247.897 226.649C243.969 229.016 240.583 231.184 237.749 233.154L241.173 238.081C243.87 236.206 247.141 234.109 250.993 231.788L247.897 226.649ZM237.777 233.134C234.879 235.099 232.372 237.147 230.283 239.287L234.576 243.478C236.331 241.681 238.512 239.885 241.144 238.1L237.777 233.134ZM230.308 239.261C228.155 241.415 226.558 243.744 225.716 246.27L231.409 248.167C231.879 246.756 232.86 245.195 234.551 243.504L230.308 239.261ZM225.635 246.565C225.048 249.195 224.604 251.235 224.306 252.676C224.158 253.395 224.042 253.982 223.962 254.426C223.906 254.738 223.805 255.294 223.805 255.727H229.805C229.805 255.949 229.777 255.992 229.867 255.489C229.934 255.119 230.038 254.59 230.182 253.89C230.47 252.496 230.906 250.493 231.49 247.872L225.635 246.565ZM223.805 255.727C223.805 258.057 224.672 260.209 226.673 261.645C228.491 262.949 230.849 263.367 233.273 263.367V257.367C231.386 257.367 230.509 257.012 230.171 256.769C230.016 256.658 229.805 256.49 229.805 255.727H223.805ZM233.273 263.367C235.016 263.367 236.888 262.66 238.688 261.735C240.569 260.768 242.738 259.367 245.171 257.584L241.625 252.744C239.325 254.43 237.438 255.631 235.945 256.398C234.37 257.207 233.547 257.367 233.273 257.367V263.367ZM246.22 254.144C245.522 252.216 245.203 250.452 245.203 248.836H239.203C239.203 251.251 239.681 253.706 240.577 256.184L246.22 254.144ZM245.203 248.836C245.203 246.305 245.724 243.682 246.817 240.95L241.246 238.722C239.901 242.084 239.203 245.461 239.203 248.836H245.203ZM246.822 240.936C247.962 238.042 249.682 234.656 252.018 230.762L246.873 227.675C244.428 231.75 242.538 235.442 241.24 238.736L246.822 240.936ZM313.852 248.836L316.265 250.618L316.995 249.629L316.821 248.412L313.852 248.836ZM329.883 238.781L327.145 237.555L327.137 237.572L327.13 237.59L329.883 238.781ZM323.906 248.414L321.564 246.54L319.886 248.637L321.785 250.535L323.906 248.414ZM325.312 249.75L323.294 251.97L323.352 252.022L323.413 252.072L325.312 249.75ZM326.93 250.875L325.418 253.466L325.542 253.539L325.673 253.599L326.93 250.875ZM334.734 247.57H337.734V240.126L332.573 245.49L334.734 247.57ZM334.734 252.562L336.895 254.644L337.734 253.773V252.562H334.734ZM321.305 257.766L320.02 260.477L320.104 260.517L320.191 260.551L321.305 257.766ZM317.859 255.586L319.633 253.167L317.359 251.499L315.554 253.666L317.859 255.586ZM294.023 269.227L291.623 271.027L291.66 271.075L291.698 271.122L294.023 269.227ZM293.953 251.156L296.929 251.538L298.192 241.685L291.686 249.191L293.953 251.156ZM281.648 265.219L283.77 267.34L283.786 267.324L283.802 267.307L281.648 265.219ZM277.43 268.734L275.807 266.211L275.786 266.224L275.766 266.238L277.43 268.734ZM268.992 267.609L266.962 269.818L266.977 269.832L266.992 269.845L268.992 267.609ZM264.562 261.281L261.833 262.526L261.837 262.535L261.841 262.545L264.562 261.281ZM269.766 235.617L267.337 233.856L267.329 233.867L267.321 233.879L269.766 235.617ZM282.703 220.852L280.893 218.459L280.877 218.471L280.861 218.484L282.703 220.852ZM289.453 219.375L288.544 222.234L288.619 222.258L288.696 222.278L289.453 219.375ZM292.266 220.57L290.636 223.089L290.668 223.11L290.701 223.13L292.266 220.57ZM291.141 228.938L288.553 227.42L288.543 227.437L288.533 227.454L291.141 228.938ZM273.562 248.414L271.578 246.165L270.972 246.699L270.716 247.465L273.562 248.414ZM272.508 258.188L269.953 259.76L270.025 259.877L270.108 259.988L272.508 258.188ZM285.023 250.031L282.809 248.007L282.8 248.017L285.023 250.031ZM306.68 222.75L309.097 224.526L309.118 224.498L309.137 224.47L306.68 222.75ZM311.953 222.82L310.507 225.449L310.534 225.464L310.561 225.478L311.953 222.82ZM309.703 233.156L307.02 231.815L307.015 231.825L307.01 231.835L309.703 233.156ZM303.305 246.867L300.557 245.663L300.554 245.67L300.551 245.678L303.305 246.867ZM297.633 256.148C297.633 257.495 297.872 259.053 298.837 260.33C299.921 261.765 301.503 262.312 303.023 262.312V256.312C302.952 256.312 303.032 256.301 303.188 256.37C303.267 256.405 303.351 256.454 303.432 256.518C303.514 256.583 303.577 256.651 303.624 256.713C303.717 256.835 303.715 256.895 303.691 256.8C303.667 256.702 303.633 256.497 303.633 256.148H297.633ZM303.023 262.312C304.338 262.312 305.514 261.778 306.433 261.212C307.395 260.62 308.375 259.806 309.363 258.849C311.343 256.934 313.648 254.162 316.265 250.618L311.438 247.054C308.899 250.494 306.821 252.96 305.191 254.537C304.375 255.327 303.744 255.822 303.287 256.103C302.789 256.41 302.74 256.312 303.023 256.312V262.312ZM316.821 248.412C316.73 247.774 316.665 247.266 316.623 246.879C316.602 246.686 316.588 246.533 316.58 246.417C316.576 246.359 316.573 246.315 316.572 246.282C316.57 246.248 316.57 246.233 316.57 246.234H310.57C310.57 246.907 310.7 247.991 310.882 249.26L316.821 248.412ZM316.57 246.234C316.57 244.438 317.309 241.87 319.221 238.401L313.967 235.505C311.847 239.349 310.57 242.968 310.57 246.234H316.57ZM319.221 238.401C321.122 234.953 323.29 231.984 325.713 229.474L321.396 225.307C318.57 228.235 316.097 231.641 313.967 235.505L319.221 238.401ZM325.713 229.474C326.954 228.189 327.948 227.329 328.708 226.81C329.544 226.24 329.764 226.312 329.531 226.312V220.312C327.939 220.312 326.483 221.065 325.327 221.854C324.095 222.694 322.781 223.873 321.396 225.307L325.713 229.474ZM329.531 226.312C329.29 226.312 328.981 226.222 328.734 226.024C328.533 225.864 328.531 225.758 328.608 225.943C328.786 226.371 328.992 227.368 328.992 229.219H334.992C334.992 227.132 334.788 225.176 334.146 223.635C333.813 222.835 333.298 221.992 332.482 221.339C331.619 220.649 330.592 220.312 329.531 220.312V226.312ZM328.992 229.219C328.992 232.004 328.39 234.775 327.145 237.555L332.621 240.007C334.189 236.506 334.992 232.902 334.992 229.219H328.992ZM327.13 237.59C325.897 240.437 324.058 243.422 321.564 246.54L326.249 250.288C329.004 246.844 331.15 243.406 332.636 239.973L327.13 237.59ZM321.785 250.535C322.245 250.996 322.749 251.474 323.294 251.97L327.331 247.53C326.844 247.088 326.411 246.676 326.028 246.293L321.785 250.535ZM323.413 252.072C324.048 252.591 324.716 253.057 325.418 253.466L328.441 248.284C328.018 248.037 327.609 247.752 327.212 247.428L323.413 252.072ZM325.673 253.599C326.667 254.058 327.728 254.297 328.828 254.297V248.297C328.616 248.297 328.411 248.255 328.187 248.151L325.673 253.599ZM328.828 254.297C330.386 254.297 331.828 253.684 333.066 252.902C334.327 252.106 335.605 250.992 336.896 249.65L332.573 245.49C331.473 246.633 330.571 247.382 329.864 247.828C329.133 248.289 328.817 248.297 328.828 248.297V254.297ZM331.734 247.57V252.562H337.734V247.57H331.734ZM332.574 250.481C328.957 254.236 326.506 255.328 325.102 255.328V261.328C329.134 261.328 333.106 258.577 336.895 254.644L332.574 250.481ZM325.102 255.328C323.694 255.328 322.857 255.155 322.419 254.98L320.191 260.551C321.627 261.126 323.322 261.328 325.102 261.328V255.328ZM322.589 255.054C321.953 254.753 320.984 254.157 319.633 253.167L316.085 258.005C317.547 259.077 318.875 259.934 320.02 260.477L322.589 255.054ZM315.554 253.666C311.304 258.77 307.659 262.479 304.61 264.885C301.462 267.37 299.374 268.125 298.172 268.125V274.125C301.469 274.125 304.913 272.29 308.327 269.595C311.841 266.822 315.789 262.761 320.165 257.505L315.554 253.666ZM298.172 268.125C297.275 268.125 296.771 267.849 296.349 267.332L291.698 271.122C293.338 273.135 295.6 274.125 298.172 274.125V268.125ZM296.423 267.427C295.957 266.805 295.547 265.714 295.547 263.812H289.547C289.547 266.505 290.121 269.023 291.623 271.027L296.423 267.427ZM295.547 263.812C295.547 263.452 295.64 262.301 295.88 260.136C296.112 258.051 296.461 255.187 296.929 251.538L290.977 250.775C290.508 254.438 290.154 257.339 289.917 259.473C289.689 261.528 289.547 263.048 289.547 263.812H295.547ZM291.686 249.191C289.851 251.309 287.713 253.8 285.272 256.663L289.838 260.556C292.272 257.7 294.399 255.223 296.22 253.121L291.686 249.191ZM285.272 256.663C282.85 259.504 280.929 261.651 279.495 263.13L283.802 267.307C285.368 265.693 287.384 263.434 289.838 260.556L285.272 256.663ZM279.527 263.097C278.129 264.496 276.889 265.516 275.807 266.211L279.052 271.258C280.596 270.265 282.168 268.941 283.77 267.34L279.527 263.097ZM275.766 266.238C274.912 266.807 274.193 267 273.562 267V273C275.557 273 277.416 272.349 279.094 271.231L275.766 266.238ZM273.562 267C273.458 267 272.653 266.86 270.993 265.374L266.992 269.845C268.894 271.547 271.136 273 273.562 273V267ZM271.022 265.4C269.636 264.127 268.373 262.365 267.284 260.018L261.841 262.545C263.189 265.448 264.879 267.904 266.962 269.818L271.022 265.4ZM267.292 260.036C266.258 257.77 265.734 255.337 265.734 252.703H259.734C259.734 256.163 260.429 259.449 261.833 262.526L267.292 260.036ZM265.734 252.703C265.734 250.023 266.119 247.89 266.785 246.224L261.215 243.995C260.194 246.548 259.734 249.477 259.734 252.703H265.734ZM266.785 246.224C267.485 244.475 269.219 241.563 272.21 237.356L267.321 233.879C264.313 238.109 262.203 241.525 261.215 243.995L266.785 246.224ZM272.194 237.378C274.88 233.674 277.233 230.686 279.257 228.391L274.758 224.421C272.564 226.908 270.089 230.06 267.337 233.856L272.194 237.378ZM279.257 228.391C281.297 226.08 283.058 224.376 284.545 223.22L280.861 218.484C278.973 219.952 276.937 221.952 274.758 224.421L279.257 228.391ZM284.513 223.244C285.274 222.668 285.875 222.305 286.327 222.094C286.795 221.875 286.97 221.883 286.922 221.883V215.883C284.795 215.883 282.706 217.087 280.893 218.459L284.513 223.244ZM286.922 221.883C287.134 221.883 287.642 221.947 288.544 222.234L290.363 216.516C289.202 216.147 288.022 215.883 286.922 215.883V221.883ZM288.696 222.278C289.517 222.492 290.15 222.774 290.636 223.089L293.895 218.052C292.788 217.335 291.545 216.82 290.21 216.472L288.696 222.278ZM290.701 223.13C290.941 223.277 290.938 223.319 290.852 223.21C290.742 223.07 290.531 222.712 290.531 222.188H296.531C296.531 219.977 294.888 218.657 293.83 218.01L290.701 223.13ZM290.531 222.188C290.531 223.167 290.056 224.856 288.553 227.42L293.729 230.455C295.413 227.582 296.531 224.771 296.531 222.188H290.531ZM288.533 227.454C287.136 229.91 284.973 232.773 281.968 236.051L286.391 240.105C289.574 236.633 292.052 233.403 293.748 230.421L288.533 227.454ZM281.968 236.051C278.956 239.337 275.495 242.708 271.578 246.165L275.547 250.664C279.599 247.089 283.216 243.57 286.391 240.105L281.968 236.051ZM270.716 247.465C269.597 250.825 268.945 253.804 268.945 256.289H274.945C274.945 254.743 275.372 252.472 276.409 249.363L270.716 247.465ZM268.945 256.289C268.945 257.55 269.314 258.722 269.953 259.76L275.063 256.615C274.952 256.434 274.945 256.34 274.945 256.289H268.945ZM270.108 259.988C270.939 261.096 272.243 262.031 273.984 262.031V256.031C274.229 256.031 274.478 256.099 274.682 256.216C274.866 256.321 274.93 256.418 274.908 256.387L270.108 259.988ZM273.984 262.031C275.182 262.031 276.288 261.587 277.172 261.113C278.103 260.615 279.078 259.925 280.081 259.106C282.091 257.468 284.486 255.091 287.246 252.046L282.8 248.017C280.123 250.971 277.96 253.095 276.29 254.456C275.454 255.138 274.809 255.573 274.339 255.824C273.823 256.101 273.748 256.031 273.984 256.031V262.031ZM287.238 252.055C292.831 245.936 300.125 236.74 309.097 224.526L304.262 220.974C295.328 233.135 288.184 242.127 282.809 248.007L287.238 252.055ZM309.137 224.47C308.836 224.901 308.48 225.043 308.402 225.069C308.363 225.082 308.371 225.075 308.442 225.065C308.512 225.056 308.625 225.047 308.789 225.047V219.047C307.551 219.047 305.457 219.265 304.222 221.03L309.137 224.47ZM308.789 225.047C309.505 225.047 310.054 225.2 310.507 225.449L313.399 220.192C311.977 219.41 310.417 219.047 308.789 219.047V225.047ZM310.561 225.478C310.75 225.576 310.701 225.595 310.603 225.455C310.552 225.383 310.504 225.289 310.471 225.182C310.438 225.076 310.43 224.987 310.43 224.93H316.43C316.43 222.629 315.027 221.044 313.345 220.163L310.561 225.478ZM310.43 224.93C310.43 224.54 310.52 224.29 310.49 224.393C310.483 224.417 310.456 224.501 310.394 224.665C310.27 224.989 310.066 225.472 309.765 226.135C309.168 227.454 308.257 229.341 307.02 231.815L312.386 234.498C313.634 232.003 314.586 230.035 315.231 228.611C315.551 227.903 315.813 227.293 316 226.803C316.093 226.56 316.182 226.306 316.253 226.062C316.301 225.896 316.43 225.448 316.43 224.93H310.43ZM307.01 231.835C304.557 236.835 302.406 241.444 300.557 245.663L306.052 248.071C307.86 243.946 309.974 239.415 312.396 234.478L307.01 231.835ZM300.551 245.678C298.754 249.839 297.633 253.423 297.633 256.148H303.633C303.633 254.749 304.293 252.146 306.059 248.056L300.551 245.678Z" fill="black"/>
</svg>
